<svg xmlns="http://www.w3.org/2000/svg" width="11.961" height="18.673" viewBox="0 0 11.961 18.673"><defs><style>.a{fill:#3997f5;}</style></defs><g transform="translate(-18.857 -244.381)"><path class="a" d="M3125.88,11410.4a4.9,4.9,0,0,1,2.763,1.062,2.364,2.364,0,0,1,.668,2.7c-.627,2.164-4.042,2.31-5.938,4.9a6.35,6.35,0,0,0,.332,8.595,7.606,7.606,0,0,0,3.96,1.4,9.2,9.2,0,0,0,4.177-1.121,5.618,5.618,0,0,0,1.976-3.114,10.435,10.435,0,0,1-3.186,2.168,6.528,6.528,0,0,1-3.32.189,6.772,6.772,0,0,0,3.053-1.381,3.734,3.734,0,0,0,.824-2.632,3.05,3.05,0,0,0-.953-1.876,5.7,5.7,0,0,0-2.416-.889s2.011,1.409,1.884,2.515a2.1,2.1,0,0,1-2.393,1.905,2.622,2.622,0,0,1-2.275-2.7,4.106,4.106,0,0,1,2.349-3.79c1.511-.7,3.586.3,3.586.3a12.3,12.3,0,0,0,.5-2.776,5.758,5.758,0,0,0-.587-2.98,3.814,3.814,0,0,0-1.847-1.932A6.7,6.7,0,0,0,3125.88,11410.4Z" transform="translate(-3103 -11166.002)"/><ellipse class="a" cx="1.445" cy="1.296" rx="1.445" ry="1.296" transform="translate(21.631 246.152)"/></g></svg>