<svg xmlns="http://www.w3.org/2000/svg" width="12.219" height="19.179" viewBox="0 0 12.219 19.179"><defs><style>.a{fill:#ffe200;}</style></defs><path class="a" d="M3186.66,11255.5a23.545,23.545,0,0,1,1.988-3.742,20.535,20.535,0,0,1,2.638-3.089,14.691,14.691,0,0,0-1.152,1.85,6.428,6.428,0,0,0-.548,1.608,16.26,16.26,0,0,1,2.867-1.04,20.127,20.127,0,0,1,3.229-.479,6.139,6.139,0,0,0-.692.828,7.013,7.013,0,0,0-.539.979,16.308,16.308,0,0,1,1.942-.441c1.107-.185,2.487-.292,2.487-.292a68.48,68.48,0,0,0-5.928,7.2,102.312,102.312,0,0,0-5.531,8.966,54.308,54.308,0,0,1,2.384-6.5,52.317,52.317,0,0,1,3.285-6,3.874,3.874,0,0,0-1.245.285,16.389,16.389,0,0,0-1.777.86s.677-1,1.038-1.639a3.288,3.288,0,0,0,.4-.91,9.821,9.821,0,0,0-2.333.432,16.085,16.085,0,0,0-2.513,1.123Z" transform="translate(-3186.66 -11248.669)"/></svg>