<svg xmlns="http://www.w3.org/2000/svg" width="86" height="86" viewBox="0 0 86 86">
  <g id="icon-fire" transform="translate(-981 101)">
    <rect id="Rectangle_3" data-name="Rectangle 3" width="86" height="86" transform="translate(981 -101)" fill="none"/>
    <g id="fire_1_" data-name="fire (1)" transform="translate(994.789 -97.5)">
      <path id="Path_656" data-name="Path 656" d="M8593.044,3456.21c.136,2.66-.252,5.524.938,8.362a48.633,48.633,0,0,0,5.788,11.29c2.439,4.986,7.427,7.5,10.178,12.237a15.231,15.231,0,0,1,.228,11.211,21.981,21.981,0,0,1-4.713,7.1c-.354-.186.032.346-.494.16-.048.107.14.453-.224.42a28.754,28.754,0,0,1-5.152,3.62,31.914,31.914,0,0,1-8.231,2.9c.474-.98,1.732-1.192,2.4-2.108,2.938-3.162,5.554-5.078,7.018-11.967a5.721,5.721,0,0,0-1.3-5.257c-1.47-2.3-3.061-4.485-4.442-6.993a93.954,93.954,0,0,1-5.1-16.662,17.429,17.429,0,0,1-.356-8.521A29.49,29.49,0,0,1,8593.044,3456.21Z" transform="translate(-8552.883 -3444.78)" fill="#db0000" fill-rule="evenodd"/>
      <path id="Path_657" data-name="Path 657" d="M3854.006,3466.4c-.025-.186.688.347.673.274.907,2.279,2.419,3.111,3.25,6.423.474,5.157-1.362,10.313-2.717,15.675a46.394,46.394,0,0,1-4.208,10.6c-1.157,1.747-2.273,3.535-3.521,5.291-2.434,2.4-.4,9.2,1.459,11.455a24.775,24.775,0,0,0,6.565,6.9c-.139.337.218-.027.445.6a28.1,28.1,0,0,1-9.41-3.548,22.893,22.893,0,0,1-9.28-10.372,14.473,14.473,0,0,1,.921-13.143c3.317-3.816,7.48-6.806,10.124-11.547C3850.336,3480.854,3855.133,3473.6,3854.006,3466.4Z" transform="translate(-3836.102 -3454.841)" fill="#db0000" fill-rule="evenodd"/>
      <path id="Path_658" data-name="Path 658" d="M5669.839,2016.61a155.58,155.58,0,0,1-3.75,23.705,92.352,92.352,0,0,1-5.925,17.057,59.174,59.174,0,0,1-4.763,9.692,15.927,15.927,0,0,0,2.071,9.158c1.954,2.934,5.069,4.679,7,7.806a30.078,30.078,0,0,1,2.883,4.531,31.461,31.461,0,0,1,2.42,7.261c-.129.106.211.456.3.2a30.142,30.142,0,0,1,4.012-9.952,23.521,23.521,0,0,1,4.561-5.635,16.958,16.958,0,0,0,4.141-4.713,16.038,16.038,0,0,0,1.865-7.406c-.052-2.57-1.47-3.29-2.141-5.191a95.446,95.446,0,0,1-8.432-22.032,129.283,129.283,0,0,1-3.86-24.473Zm.071,41.306a27.734,27.734,0,0,0,3.124,5.174c1.579,2.045,3.155,3.506,3.847,6.288a8.316,8.316,0,0,1-.6,6.227,7.7,7.7,0,0,1-11.865,1.155,8.144,8.144,0,0,1-1.6-6.484c.437-3.03,2.208-4.625,4.108-7.249a31.291,31.291,0,0,0,3.006-5.113Z" transform="translate(-5640.888 -2016.61)" fill="#db0000" fill-rule="evenodd"/>
    </g>
  </g>
</svg>
