<svg xmlns="http://www.w3.org/2000/svg" width="13.903" height="17.465" viewBox="0 0 13.903 17.465"><defs><style>.a{fill:#d01111;}</style></defs><path class="a" d="M80.807,21.654c-.567,5.464-3.4,4.2-4.091,7.936-1.573-1.437-1.992-3.225.4-5.551-5.309,3.033-3.4,6.933.5,10.131,1,1.2,2.466,2.161,3.192,4.949C81.532,36.331,83,35.375,84,34.17c3.895-3.2,5.806-7.1.5-10.131,2.4,2.327,1.977,4.115.4,5.553-.693-3.74-3.524-2.473-4.091-7.937Zm0,2.722A3.921,3.921,0,0,0,82.32,27.42a2.88,2.88,0,0,1-.227,5.021,4.862,4.862,0,0,0-1.286,2.278,4.847,4.847,0,0,0-1.267-2.26,2.882,2.882,0,0,1-.213-5.072,3.894,3.894,0,0,0,1.481-3.012Zm-.009,3.3a2.19,2.19,0,1,0,1.547.642,2.186,2.186,0,0,0-1.547-.642Z" transform="translate(-73.855 -21.654)"/></svg>