<svg xmlns="http://www.w3.org/2000/svg" width="86" height="86" viewBox="0 0 86 86">
  <g id="icon-water" transform="translate(-885 101)">
    <rect id="Rectangle_2" data-name="Rectangle 2" width="86" height="86" transform="translate(885 -101)" fill="none"/>
    <g id="water_1_" data-name="water (1)" transform="translate(889.667 -96.553)">
      <path id="Path_664" data-name="Path 664" d="M3822.929,2891a32.908,32.908,0,0,1,10.765,1.849,28.358,28.358,0,0,1,11.325,8.716,35.051,35.051,0,0,1,3.37,5.28,42.689,42.689,0,0,1,2.956,7.616,50.353,50.353,0,0,1-3.17,30.881,38.416,38.416,0,0,1-9.517,13.579,34.226,34.226,0,0,1-12.432,6.816,32.332,32.332,0,0,1-13.035,1.446,27.2,27.2,0,0,1-9.4-2.853c-6.469-3.287-10.839-8.553-13.992-15.513-.145-.319.231-.115.408-.061a25.43,25.43,0,0,0,8.607,7.144,27.376,27.376,0,0,0,13.445,3.3,26.523,26.523,0,0,0,11.316-2.992,27.739,27.739,0,0,0,10.9-10.407c1.938-2.884,4.432-9.787,3.7-14.76a25.046,25.046,0,0,0-3.075-11.213,24.623,24.623,0,0,0-9.019-9.22,26.424,26.424,0,0,0-8.164-3.076c-3.009-.394-6.016-.078-9.3-.293-1.787-.529-2.927-2.833-2.294-6.094a14.268,14.268,0,0,1,5.766-6.614A23.643,23.643,0,0,1,3822.929,2891Z" transform="translate(-3789.758 -2891)" fill="#3997f5" fill-rule="evenodd"/>
      <path id="Path_665" data-name="Path 665" d="M8195.769,4127.02c5.068.558,6.1,2.934,8.077,5.715a29.153,29.153,0,0,1,3.648,9.6,54.991,54.991,0,0,1-1.248,19.605,49.684,49.684,0,0,1-2.571,7.422,40.209,40.209,0,0,1-5.033,8.21,44.151,44.151,0,0,1-10.352,9.074,46.108,46.108,0,0,1-7.537,3.665,59.137,59.137,0,0,1-9.891,2.513c-.174-.056-.35.145-.478-.255a44.576,44.576,0,0,0,15.239-8.58,41.068,41.068,0,0,0,7.607-8.872c.66-1.312,1.594-2.344,2.166-3.691a44.374,44.374,0,0,0,3.778-21.627,52.134,52.134,0,0,0-1.693-10.819c-.78-4.225-2.925-6.557-3.482-10.527C8194.35,4127.61,8194.637,4127.339,8195.769,4127.02Z" transform="translate(-8132.319 -4116.276)" fill="#3997f5" fill-rule="evenodd"/>
      <path id="Path_666" data-name="Path 666" d="M4161.669,5388.091a20.583,20.583,0,0,1,8.664,1.068,19.559,19.559,0,0,1,8.905,7.386c1.746,2.169,3.959,8.377,3.085,12.559a19.3,19.3,0,0,1-4.116,9.9,17.189,17.189,0,0,1-5.721,4.781,17.479,17.479,0,0,1-17.58-.159,18.972,18.972,0,0,1-4.655-29.281,18.653,18.653,0,0,1,11.41-6.282A.044.044,0,0,1,4161.669,5388.091ZM4164,5393.4a13.753,13.753,0,0,1-.1,27.492c-7.935-.125-13.867-8.106-12.845-15.7A13.642,13.642,0,0,1,4164,5393.415Z" transform="translate(-4142.211 -5366.348)" fill="#3997f5" fill-rule="evenodd"/>
      <path id="Path_667" data-name="Path 667" d="M5623.662,6866.89a6.107,6.107,0,1,1-6.2,5.856,6.109,6.109,0,0,1,6.2-5.856Z" transform="translate(-5601.572 -6832.33)" fill="#3997f5" fill-rule="evenodd"/>
    </g>
  </g>
</svg>
