<svg xmlns="http://www.w3.org/2000/svg" width="86" height="86" viewBox="0 0 86 86">
  <g id="icon-earth" transform="translate(-792 101)">
    <rect id="Rectangle_1" data-name="Rectangle 1" width="86" height="86" transform="translate(792 -101)" fill="none"/>
    <g id="earth_3_" data-name="earth (3)" transform="translate(801.188 -97.504)">
      <path id="Path_659" data-name="Path 659" d="M6455.077,2344.93c-.8.988-2.14,1.363-3.126,2.14a26.021,26.021,0,0,0-3.117,2.2c-1.926,1.646-3.668,3.411-5.387,5.192a48.444,48.444,0,0,0-8.377,12.778c-.415.875-.746,1.833-1.1,2.7a8.779,8.779,0,0,0-.791,2.986c1.206-.382,1.811-.935,2.753-1.289.864-.452,1.645-.916,2.513-1.316,1.681-.9,3.343-1.747,5.008-2.591,3.376-1.758,6.715-3.482,10.082-5.178a30.831,30.831,0,0,0,15.064-15.4,34.081,34.081,0,0,0,2.559-8.031,38.95,38.95,0,0,0,.672-9.875c.026,0-.048-.112-.033-.112a59.006,59.006,0,0,0-1.975-10.119c-.251.135.019-.248-.357-.148a28.216,28.216,0,0,1-1.821,4.982,21.138,21.138,0,0,1-10.467,9.767,71.67,71.67,0,0,1-7.49,2.576,54.218,54.218,0,0,0-6.334,2.347,24.171,24.171,0,0,0-6.274,5.338,28.046,28.046,0,0,0-3.446,5.219,44.28,44.28,0,0,0-2.492,6.255,58.579,58.579,0,0,0-2.13,9.773c-.282,3.257-.758,6.514-.81,9.887.112-.165.23.345.421-.143a18.793,18.793,0,0,1,2.23-6.268c5.091-10.8,13.411-18.219,23.8-23.736Z" transform="translate(-6403.818 -2318.872)" fill="#24a24b" fill-rule="evenodd"/>
      <path id="Path_660" data-name="Path 660" d="M3476.288,2382.923c2.892,1.889,5.866,3.561,8.815,5.579a21.1,21.1,0,0,0,1.467-2.563,43.256,43.256,0,0,1,2.714-4.3c.412-.585.823-1.178,1.263-1.752.9-.637-.222-1.416-.754-1.738a24.516,24.516,0,0,0-8.906-3.928,50.762,50.762,0,0,1-7.875-2.853,18.409,18.409,0,0,1-7.012-5.5,15.031,15.031,0,0,1-2.526-3.746,23.667,23.667,0,0,1-2.266-4.923,24.648,24.648,0,0,0-1.1,3.761,34.98,34.98,0,0,0-.649,14.995,36.075,36.075,0,0,0,3.58,10.8,28.523,28.523,0,0,0,7.464,9.41,46.815,46.815,0,0,0,10.863,6.536c.211.1.078-.155.189-.346a47.11,47.11,0,0,1,1.3-6.9c.482-1.685,1.126-3.372,1.759-5.173-.053-1.463-1.231-1.4-1.86-2.2a48.577,48.577,0,0,0-6.81-4.917S3476.205,2382.923,3476.288,2382.923Z" transform="translate(-3458.945 -2356.875)" fill="#24a24b" fill-rule="evenodd"/>
      <path id="Path_661" data-name="Path 661" d="M8073.069,8407.879a1.725,1.725,0,0,0,.526-.074,24.8,24.8,0,0,1-1.063,8.777,31.815,31.815,0,0,0-5.9-5.138,1.581,1.581,0,0,1,.069-.494A40.656,40.656,0,0,1,8073.069,8407.879Z" transform="translate(-8028.796 -8357.812)" fill="#24a24b" fill-rule="evenodd"/>
      <path id="Path_662" data-name="Path 662" d="M6358.9,9191.067a8.751,8.751,0,0,1,2.425.172,16.927,16.927,0,0,1,2.62,2.01,45.763,45.763,0,0,1,4.172,4.485,4.438,4.438,0,0,1,1.244,2.85c0,1.151,0,2.294-.063,3.513a7.415,7.415,0,0,1-.724,3.189,7.952,7.952,0,0,1-2.988,3.294,9.258,9.258,0,0,1-4.725,1.474,12.731,12.731,0,0,1-4.773-.352,9.288,9.288,0,0,1-3.061-1.6,7.882,7.882,0,0,1-2.847-4.52,17.193,17.193,0,0,1-.137-5.673,5.958,5.958,0,0,1,1.722-2.812c.987-1.1,1.939-2.248,3.028-3.314.53-.5,1.1-.977,1.711-1.492a3.481,3.481,0,0,1,2.368-1.188Zm.938,3.214a4.876,4.876,0,0,0-3.351,1.906,21.842,21.842,0,0,0-2.985,3.382c-.62,1.174-2.286,4.978-.165,8.066a7.487,7.487,0,1,0,12.49-8.252,22.554,22.554,0,0,0-2.728-3.112c-1.172-1.187-2.044-1.96-3.261-1.993Z" transform="translate(-6326.134 -9134.634)" fill="#24a24b" fill-rule="evenodd"/>
      <path id="Path_663" data-name="Path 663" d="M6927.437,9863.931c1.66-.036,3.1,1.62,4.356,4.227a6.643,6.643,0,0,1,.678,4.4,5.674,5.674,0,0,1-10.047.419,7.226,7.226,0,0,1,1.007-5.225C6924.9,9865.034,6926.45,9863.964,6927.437,9863.931Z" transform="translate(-6893.822 -9801.973)" fill="#24a24b" fill-rule="evenodd"/>
    </g>
  </g>
</svg>
