<svg xmlns="http://www.w3.org/2000/svg" width="12.768" height="15.746" viewBox="0 0 12.768 15.746"><defs><style>.a{fill:#24a24b;}</style></defs><g transform="translate(-99.715 -357.034)"><path class="a" d="M3243.86,11526.3c.9-1.13,3-3.266,3-3.266a58.014,58.014,0,0,1,4.625,4.8c1.31,1.707.495,4.274-.663,5.441a5.774,5.774,0,0,1-3.354,1.257v-7.984l-1.075-.019.051,5.236a5.2,5.2,0,0,1-2.313-1.521,3.394,3.394,0,0,1-.271-3.946Z" transform="translate(-3140.791 -11166)"/><path class="a" d="M3302.27,11637.4a6.364,6.364,0,0,0,3.817-1.164,7.655,7.655,0,0,0,1.9-3.791s.593,3.332-.835,5.365-4.88,2.768-4.88,2.768Z" transform="translate(-3195.626 -11267.798)"/><path class="a" d="M3208.58,11595.4v6.1s-4.022-.645-5.086-3.392a8.459,8.459,0,0,1-.753-4.21,5.68,5.68,0,0,1,1.583-3.386,8.429,8.429,0,0,0,1.394,3.629,4.309,4.309,0,0,0,2.862,1.26Z" transform="translate(-3103 -11228.787)"/></g></svg>