<svg xmlns="http://www.w3.org/2000/svg" width="40" height="40" viewBox="0 0 40 40">
  <g id="Close" transform="translate(-1578 -213)">
    <g id="Group_437" data-name="Group 437" transform="translate(1586.881 221.637)">
      <path id="Path_164" data-name="Path 164" d="M8.248,9.176a.626.626,0,0,0,.886-.886L4.124,3.276a.626.626,0,0,0-.886.886Z" transform="translate(-0.042 -0.037)" fill="#edcd90"/>
      <path id="Path_165" data-name="Path 165" d="M12.04,11.2l7.072-7.079a.627.627,0,0,0,0-.886.636.636,0,0,0-.886-.108l-7.514,7.413h-.186v.217L3.1,18.282a.629.629,0,0,0,.046.886.677.677,0,0,0,.466.184.648.648,0,0,0,.454-.184l7.078-7.078,7.075,7.079a.627.627,0,0,0,.888-.886Z" fill="#edcd90"/>
    </g>
    <g id="Ellipse_36" data-name="Ellipse 36" transform="translate(1578 213)" fill="rgba(255,255,255,0)" stroke="#edcd90" stroke-width="1">
      <circle cx="20" cy="20" r="20" stroke="none"/>
      <circle cx="20" cy="20" r="19.5" fill="none"/>
    </g>
  </g>
</svg>