<svg xmlns="http://www.w3.org/2000/svg" width="22.813" height="22.813" viewBox="0 0 22.813 22.813">
  <path id="_126578_load_loading_spinner_icon" data-name="126578_load_loading_spinner_icon" d="M11.406,0A1.426,1.426,0,0,0,9.98,1.426V4.277a1.426,1.426,0,0,0,2.852,0V1.426A1.426,1.426,0,0,0,11.406,0Zm0,17.109A1.425,1.425,0,0,0,9.98,18.535v2.852a1.426,1.426,0,0,0,2.852,0V18.535A1.425,1.425,0,0,0,11.406,17.109Zm6.048-9.735L19.47,5.357a1.426,1.426,0,1,0-2.016-2.016L15.438,5.357a1.426,1.426,0,1,0,2.016,2.017Zm-12.1,8.064L3.341,17.454A1.426,1.426,0,1,0,5.357,19.47l2.016-2.016a1.426,1.426,0,0,0-2.016-2.016Zm0-12.1A1.426,1.426,0,0,0,3.341,5.357L5.357,7.374A1.426,1.426,0,1,0,7.373,5.357Zm12.1,12.1a1.426,1.426,0,1,0-2.016,2.016l2.016,2.016a1.426,1.426,0,1,0,2.016-2.016ZM21.387,9.98H18.535a1.426,1.426,0,0,0,0,2.852h2.852a1.426,1.426,0,0,0,0-2.852ZM5.7,11.406A1.426,1.426,0,0,0,4.277,9.98H1.426a1.426,1.426,0,0,0,0,2.852H4.277A1.426,1.426,0,0,0,5.7,11.406Z" fill="#edcd90"/>
</svg>
