<svg id="sword-svgrepo-com_2_" data-name="sword-svgrepo-com (2)" xmlns="http://www.w3.org/2000/svg" width="12.454" height="12.456" viewBox="0 0 12.454 12.456">
  <path id="Path_680" data-name="Path 680" d="M6.2,162.825a1.842,1.842,0,0,0-.316-.424,1.861,1.861,0,0,0-.446-.327c-.194-.1-.041-.322-.041-.322.2-.3.379-.6.528-.868l-1-1H3.945a.339.339,0,0,1,0-.678H5.059a.339.339,0,0,1,.24.1l3.664,3.66a.339.339,0,0,1,.1.24v1.119a.339.339,0,0,1-.678,0v-.978l-1-1c-.27.159-.583.354-.893.569A.2.2,0,0,1,6.2,162.825Z" transform="translate(-3.452 -152.371)" fill="#edcd90"/>
  <path id="Path_681" data-name="Path 681" d="M1.157,237.1a1.14,1.14,0,1,0,.807,1.946,1.14,1.14,0,0,0-.807-1.946Z" transform="translate(-0.016 -226.926)" fill="#edcd90"/>
  <path id="Path_682" data-name="Path 682" d="M77.852,7.825a.388.388,0,0,1-.547,0l-.378-.378a.387.387,0,0,1,0-.546L83.382.453A1.244,1.244,0,0,1,84.04.145L85.622,0a.311.311,0,0,1,.35.35L85.828,1.93a1.242,1.242,0,0,1-.308.658L79.065,9.036a.388.388,0,0,1-.547,0l-.379-.378a.387.387,0,0,1,0-.546l5.4-5.4a.2.2,0,1,0-.288-.288Z" transform="translate(-73.518 0)" fill="#edcd90"/>
</svg>
