<svg xmlns="http://www.w3.org/2000/svg" width="50.382" height="56.112" viewBox="0 0 50.382 56.112">
  <g id="Layer_2" transform="translate(-52.378 -27.5)">
    <g id="Group_439" data-name="Group 439" transform="translate(52.378 27.5)">
      <path id="Path_167" data-name="Path 167" d="M101.806,41.612,78.566,27.774a1.952,1.952,0,0,0-2,0L53.33,41.612a1.949,1.949,0,0,0-.948,1.8A47.252,47.252,0,0,0,59.41,65.566,63.536,63.536,0,0,0,76.424,83.24a1.951,1.951,0,0,0,2.291,0A63.568,63.568,0,0,0,95.728,65.566a47.238,47.238,0,0,0,7.029-22.158A1.952,1.952,0,0,0,101.806,41.612ZM77.568,79.237C64.5,69.406,57.548,57.97,56.361,44.346L77.568,31.719,98.775,44.346C97.588,57.97,90.636,69.406,77.568,79.237Z" transform="translate(-52.378 -27.5)" fill="#3c3c3c"/>
      <path id="Path_168" data-name="Path 168" d="M122.868,112.215a1.949,1.949,0,0,0-.92,2.028,39.27,39.27,0,0,0,5.175,13.44,50.985,50.985,0,0,0,10.233,11.793,1.951,1.951,0,0,0,2.552,0,50.959,50.959,0,0,0,10.233-11.793,39.279,39.279,0,0,0,5.175-13.44,1.949,1.949,0,0,0-.92-2.028l-14.767-8.791a1.952,1.952,0,0,0-2,0Zm28.342,2.644c-1.7,7.6-5.828,14.346-12.579,20.533-6.751-6.187-10.881-12.929-12.579-20.533l12.579-7.489Z" transform="translate(-113.44 -93.93)" fill="#3c3c3c"/>
    </g>
  </g>
</svg>
