<svg id="_8675038_ic_fluent_heart_pulse_regular_icon" data-name="8675038_ic_fluent_heart_pulse_regular_icon" xmlns="http://www.w3.org/2000/svg" width="14.572" height="12.597" viewBox="0 0 14.572 12.597">
  <path id="Path_676" data-name="Path 676" d="M9.882,5.151l-.6.6-.6-.6A3.916,3.916,0,0,0,2.182,9.1H3.351A2.823,2.823,0,0,1,7.912,5.923l.989.989A.546.546,0,0,0,9.682,6.9l.972-.979A2.825,2.825,0,0,1,15.22,9.1H16.39A3.918,3.918,0,0,0,9.882,5.151Z" transform="translate(-2 -4.002)" fill="#edcd90"/>
  <path id="Path_677" data-name="Path 677" d="M9.684,19.288,4.894,14.5h1.43q.056,0,.111,0l3.636,3.636L13.7,14.5H15.25l-4.793,4.79A.546.546,0,0,1,9.684,19.288Z" transform="translate(-2.786 -6.851)" fill="#edcd90"/>
  <path id="Path_678" data-name="Path 678" d="M7.406,8.3a.546.546,0,0,0-.982.011l-1.231,2.6H2.546a.546.546,0,0,0,0,1.093H5.538a.546.546,0,0,0,.494-.313l.9-1.9L8.8,13.525a.546.546,0,0,0,.932.076l1.965-2.721.823.94a.546.546,0,0,0,.411.187h3.1a.546.546,0,0,0,0-1.093H13.175l-1.112-1.27a.546.546,0,0,0-.854.04L9.37,12.23Z" transform="translate(-2 -5.088)" fill="#edcd90"/>
</svg>
