<svg xmlns="http://www.w3.org/2000/svg" width="58.362" height="65.219" viewBox="0 0 58.362 65.219">
  <g id="_2191194_console_game_gaming_multimedia_play_icon" data-name="2191194_console_game_gaming_multimedia_play_icon" transform="translate(0 -0.001)">
    <path id="Path_291" data-name="Path 291" d="M50.2,54.325l1.163-6.6v0l1.77-10.045a1.283,1.283,0,0,1,2.171-.685L92.423,74.1l3.322-3.322a1.283,1.283,0,0,1,1.815,0l5.35,5.35a1.283,1.283,0,0,1,0,1.815l-5.7,5.7L108.17,94.6a1.283,1.283,0,0,1,0,1.815l-5.042,5.042a1.283,1.283,0,0,1-1.815,0L97.9,98.047h0L90.356,90.5l-5.7,5.7a1.283,1.283,0,0,1-1.815,0l-5.35-5.35a1.283,1.283,0,0,1,0-1.815l3.322-3.322L50.56,55.455A1.283,1.283,0,0,1,50.2,54.325ZM55.237,40.55l-1.23,6.982L86.5,80.026l4.106-4.106ZM102.22,98.735l3.227-3.227-1.6-1.6-3.227,3.227Zm-10.05-10.05,6.638,6.638,3.227-3.227L95.4,85.459l-1.613,1.613Zm-8.42,4.79,6.729-6.729,4.009-4.009h0l5.7-5.7-3.535-3.535-3.321,3.321h0l-4.9,4.9-8.218,8.218ZM82.631,83.9l2.055-2.056L53.463,50.618l-.616,3.495Z" transform="translate(-50.184 -36.614)" fill="#3c3c3c"/>
  </g>
</svg>
