<svg id="_x31_30_x2C__sword_x2C__fencing_x2C__sports_x2C__weapon" xmlns="http://www.w3.org/2000/svg" width="26.332" height="26.441" viewBox="0 0 26.332 26.441">
  <g id="XMLID_13813_" transform="translate(0)">
    <path id="XMLID_13814_" d="M92.335,94.915l2-2-6.373-6.373a.354.354,0,1,1,.5-.5l6.373,6.373,2-2L90.04,83.6,84.289,82.14l1.247,5.975Z" transform="translate(-84.181 -82.14)" fill="#edcd90"/>
    <rect id="XMLID_13815_" width="2.835" height="4.806" transform="translate(13.667 18.286) rotate(-45)" fill="#edcd90"/>
    <path id="XMLID_13816_" d="M83.439,368.99a1.93,1.93,0,0,0-.575,1.318,1.7,1.7,0,0,0,1.716,1.763,1.922,1.922,0,0,0,1.364-.575l1.675-1.675-2.506-2.505Z" transform="translate(-82.864 -345.63)" fill="#edcd90"/>
    <path id="XMLID_13817_" d="M371.347,370.308a1.93,1.93,0,0,0-.575-1.317l-1.675-1.675-2.506,2.506,1.675,1.675a1.921,1.921,0,0,0,1.364.575,1.7,1.7,0,0,0,1.716-1.763Z" transform="translate(-345.017 -345.63)" fill="#edcd90"/>
    <rect id="XMLID_13818_" width="3.543" height="1.418" transform="translate(5.257 23.69) rotate(-135)" fill="#edcd90"/>
    <rect id="XMLID_13819_" width="3.543" height="1.417" transform="translate(6.761 22.187) rotate(-135)" fill="#edcd90"/>
    <path id="XMLID_13820_" d="M166.875,82.14,161.124,83.6l-7.056,7.056-5.011,5.011-3.649,3.649,2,2L162.7,86.036a.354.354,0,0,1,.5.5l-15.284,15.284,2,2,15.71-15.71Z" transform="translate(-140.652 -82.14)" fill="#edcd90"/>
    <rect id="XMLID_13821_" width="3.544" height="1.417" transform="translate(18.568 21.185) rotate(-45)" fill="#edcd90"/>
    <rect id="XMLID_13822_" width="3.543" height="1.418" transform="translate(20.072 22.688) rotate(-45)" fill="#edcd90"/>
    <rect id="XMLID_13823_" width="2.835" height="4.806" transform="translate(21.576 17.175) rotate(135)" fill="#edcd90"/>
  </g>
</svg>
