<?xml version="1.0" standalone="no"?>
<!DOCTYPE svg PUBLIC "-//W3C//DTD SVG 20010904//EN"
 "http://www.w3.org/TR/2001/REC-SVG-20010904/DTD/svg10.dtd">
<svg version="1.0" xmlns="http://www.w3.org/2000/svg"
 width="512.000000pt" height="512.000000pt" viewBox="0 0 512.000000 512.000000"
 preserveAspectRatio="xMidYMid meet">
<metadata>
Created by potrace 1.14, written by Peter Selinger 2001-2017
</metadata>
<g transform="translate(0.000000,512.000000) scale(0.100000,-0.100000)"
fill="#000000" stroke="none">
<path d="M2840 4846 c0 -2 8 -10 18 -17 15 -13 16 -12 3 4 -13 16 -21 21 -21
13z"/>
<path d="M3184 4842 c4 -3 14 -7 22 -8 9 -1 13 0 10 4 -4 3 -14 7 -22 8 -9 1
-13 0 -10 -4z"/>
<path d="M3051 4823 c-7 -8 -16 -11 -20 -6 -8 11 -31 15 -31 5 0 -4 -16 -7
-35 -8 -19 0 -35 3 -35 8 0 4 -5 8 -11 8 -5 0 -8 -4 -4 -9 3 -6 -19 -9 -54 -8
-32 1 -57 -1 -55 -5 2 -3 -14 -5 -36 -3 -23 2 -40 -1 -40 -7 0 -6 -8 -4 -17 3
-9 8 -14 9 -10 3 7 -12 -167 -39 -185 -28 -7 5 -8 2 -3 -6 6 -10 4 -12 -10 -7
-9 4 -23 3 -29 -1 -6 -5 -18 -10 -26 -10 -8 0 -24 -3 -35 -5 -11 -3 -29 3 -40
12 -18 15 -19 15 -6 -2 18 -23 12 -28 -37 -30 -22 0 -39 -4 -36 -8 4 -7 -53
-23 -70 -20 -4 1 -14 -3 -22 -10 -7 -6 -18 -8 -23 -5 -5 4 -13 1 -17 -5 -4 -8
-9 -7 -15 2 -7 11 -9 10 -9 -5 0 -16 -2 -17 -17 -5 -11 10 -14 10 -9 2 4 -8 2
-13 -8 -13 -8 0 -17 -6 -20 -12 -5 -10 -7 -10 -12 0 -5 11 -8 10 -18 -1 -15
-20 -95 -49 -109 -41 -7 4 -9 4 -5 -1 9 -9 -110 -68 -136 -67 -10 1 -15 -2
-12 -5 9 -9 -64 -44 -76 -37 -4 3 -8 2 -7 -3 3 -20 -2 -27 -11 -13 -8 13 -10
12 -10 -3 0 -10 -4 -16 -9 -13 -5 3 -12 -1 -15 -10 -3 -8 -10 -12 -16 -9 -5 3
-10 2 -10 -2 0 -5 -9 -14 -20 -20 -17 -11 -19 -10 -14 5 3 9 -2 5 -11 -10 -15
-26 -25 -31 -67 -31 -10 0 -18 -4 -18 -9 0 -6 7 -8 15 -4 22 8 18 -7 -6 -22
-17 -11 -20 -11 -14 0 3 7 0 5 -9 -6 -8 -10 -20 -15 -27 -10 -7 4 -10 3 -5 -4
3 -6 -6 -22 -21 -36 -15 -15 -29 -22 -31 -16 -2 5 -8 10 -13 10 -4 0 -6 -6 -3
-14 3 -9 -4 -20 -18 -27 -12 -7 -31 -23 -41 -36 -10 -13 -23 -20 -29 -17 -6 4
-8 2 -5 -3 4 -6 -3 -19 -15 -29 -12 -11 -18 -14 -15 -7 4 6 4 14 -1 17 -4 2
-8 -4 -9 -14 -1 -11 -12 -30 -25 -42 -13 -13 -20 -19 -15 -14 10 14 9 26 -3
26 -6 0 -9 -3 -8 -7 3 -15 -20 -59 -38 -73 -10 -8 -15 -10 -11 -3 4 6 2 15 -5
19 -7 4 -10 4 -6 0 3 -4 2 -21 -4 -38 -8 -22 -15 -28 -30 -25 -15 4 -17 2 -9
-7 8 -10 6 -18 -8 -30 -11 -10 -24 -15 -29 -12 -6 3 -8 -2 -5 -14 3 -11 0 -20
-6 -20 -6 0 -11 -5 -11 -11 0 -6 -6 -17 -14 -25 -15 -15 -30 -19 -22 -6 2 4
-4 8 -15 8 -19 0 -18 -1 3 -18 13 -10 18 -18 13 -18 -6 0 -30 -34 -54 -75 -24
-41 -49 -71 -54 -68 -6 4 -8 0 -4 -11 5 -11 3 -15 -4 -10 -7 4 -10 1 -7 -7 6
-17 -9 -49 -23 -49 -6 0 -7 5 -3 12 4 7 3 8 -5 4 -9 -6 -9 -11 -1 -21 8 -10 8
-15 -1 -21 -8 -5 -9 -3 -4 6 5 9 4 11 -4 6 -6 -4 -9 -16 -6 -27 4 -10 2 -19
-3 -19 -13 0 -24 29 -16 43 5 9 3 8 -6 0 -11 -10 -10 -16 3 -36 21 -32 8 -53
-24 -37 l-24 11 23 -18 c21 -17 22 -21 8 -32 -13 -11 -16 -11 -16 -1 0 8 -3
10 -6 7 -4 -4 -1 -13 6 -22 10 -13 10 -18 -2 -33 -9 -9 -13 -23 -10 -31 3 -9
0 -11 -8 -6 -10 6 -12 4 -7 -9 6 -14 3 -17 -9 -12 -13 5 -14 4 -6 -7 7 -8 9
-17 5 -21 -4 -3 -8 -14 -9 -22 -1 -9 -6 -23 -10 -32 -8 -19 -11 -28 -13 -42 0
-5 -8 -7 -16 -4 -8 4 -12 10 -9 15 3 5 9 7 13 5 4 -3 8 1 8 9 0 21 -10 19 -24
-4 -10 -15 -9 -22 2 -31 12 -10 14 -45 4 -57 -2 -4 -6 -20 -8 -34 0 -5 -6 -7
-12 -3 -6 3 -7 9 -3 13 5 3 11 13 12 21 2 8 0 12 -4 8 -4 -4 -12 -3 -19 2 -8
7 -12 5 -12 -5 0 -8 4 -12 8 -9 4 2 8 -4 8 -13 0 -10 2 -35 4 -55 2 -20 -1
-34 -6 -31 -5 3 -8 -3 -7 -13 1 -11 1 -22 0 -26 -1 -5 -3 -18 -4 -30 0 -12 -8
-23 -16 -25 -13 -4 -13 -3 0 6 12 8 11 10 -7 8 -16 -1 -19 -5 -12 -13 7 -8 6
-14 -1 -19 -13 -8 -13 -35 0 -35 6 0 9 3 9 8 -3 20 2 32 12 26 8 -5 8 -9 -1
-14 -15 -10 -15 -21 2 -31 11 -7 11 -9 -1 -9 -8 0 -11 -6 -7 -16 3 -8 2 -12
-4 -9 -5 3 -7 -10 -5 -32 2 -21 -1 -44 -7 -50 -8 -9 -7 -13 3 -13 9 0 10 -3 4
-8 -6 -4 -11 -16 -11 -27 0 -13 -6 -20 -17 -19 -9 1 -14 -3 -10 -9 4 -7 -1 -8
-13 -4 -19 7 -19 7 0 -8 16 -12 17 -17 6 -30 -11 -13 -11 -18 0 -28 9 -8 11
-9 6 0 -3 6 0 18 8 26 10 9 11 18 5 24 -6 6 -5 10 5 10 17 0 15 -19 -4 -43
-14 -16 -13 -17 5 -11 19 7 19 6 2 -7 -19 -15 -23 -31 -4 -20 8 5 8 2 -2 -9
-7 -9 -16 -17 -19 -17 -3 0 -2 3 1 7 8 8 -12 33 -26 33 -6 0 -2 -6 8 -14 18
-13 18 -13 -1 -24 -10 -6 -15 -14 -10 -19 5 -4 11 -2 13 5 3 6 9 9 15 6 5 -3
2 -14 -8 -25 -16 -18 -16 -19 -1 -13 16 6 21 17 18 37 0 4 3 7 8 7 10 0 9 -39
-2 -57 -3 -5 -3 -13 0 -17 4 -4 8 -17 10 -29 2 -17 1 -19 -7 -7 -8 13 -10 12
-10 -2 0 -10 6 -18 13 -18 8 0 7 -4 -3 -10 -10 -7 -12 -12 -4 -17 13 -9 15
-45 2 -37 -5 3 -5 11 -2 17 5 8 4 9 -4 2 -6 -6 -9 -21 -5 -34 4 -14 8 -18 13
-11 5 8 9 6 12 -7 4 -13 0 -19 -13 -19 -10 0 -16 3 -14 7 3 3 -2 14 -9 24 -10
14 -15 15 -21 5 -5 -9 -4 -11 3 -6 7 4 12 4 13 -1 0 -4 2 -16 4 -26 2 -13 -1
-17 -11 -13 -9 3 -12 2 -9 -5 4 -6 13 -8 20 -5 8 3 16 2 18 -2 2 -4 2 0 0 8
-3 12 -2 12 8 3 7 -7 13 -20 14 -30 0 -10 5 -24 9 -32 5 -8 -1 -7 -18 4 -29
19 -34 27 -11 19 8 -4 15 -2 15 3 0 15 -38 13 -44 -3 -3 -7 0 -13 6 -11 5 1
12 -6 13 -15 2 -10 -1 -18 -7 -18 -6 0 -4 -7 3 -17 12 -15 12 -16 -3 -10 -10
3 -20 2 -23 -4 -4 -5 -3 -9 2 -8 19 3 33 -2 33 -12 0 -5 -3 -8 -8 -5 -4 2 -8
-10 -8 -27 -1 -18 1 -26 3 -19 3 6 9 12 14 12 11 0 8 -22 -5 -31 -4 -4 -3 -10
3 -13 6 -4 12 -2 12 3 3 21 4 26 12 38 6 9 2 13 -13 13 -12 0 -18 5 -15 10 4
6 10 8 14 6 4 -3 8 1 8 9 0 8 -5 15 -11 15 -6 0 -3 5 7 11 24 14 34 4 17 -16
-10 -12 -10 -15 0 -15 8 0 10 -3 7 -7 -4 -3 -2 -12 3 -19 8 -8 6 -17 -6 -29
-10 -9 -17 -32 -17 -51 0 -19 -5 -34 -10 -34 -5 0 1 -8 14 -18 15 -13 19 -21
11 -26 -7 -4 -12 -3 -12 2 0 6 -8 13 -17 16 -14 6 -13 2 4 -16 17 -18 20 -27
12 -43 -9 -17 -9 -18 3 -4 7 9 20 14 28 12 13 -4 13 -3 0 6 -13 10 -13 11 0
11 10 0 11 3 4 8 -6 4 -10 15 -8 25 1 9 -2 15 -6 12 -5 -3 -7 4 -5 15 2 11 -1
20 -7 20 -6 0 -5 7 3 17 12 15 12 16 -1 8 -13 -8 -13 -7 -1 8 15 19 24 16 27
-8 1 -8 -2 -13 -7 -9 -5 3 -9 1 -9 -5 0 -5 6 -12 13 -14 9 -4 9 -6 -1 -6 -11
-1 -11 -4 1 -15 7 -8 13 -25 12 -38 -1 -12 5 -29 12 -37 10 -10 11 -17 4 -24
-15 -15 -41 -18 -41 -5 0 6 6 8 13 5 8 -3 14 1 14 8 0 10 -5 11 -18 4 -10 -5
-17 -18 -16 -29 1 -14 4 -16 14 -8 9 8 13 7 13 -2 0 -10 3 -10 14 -1 10 8 16
9 21 1 7 -11 5 -12 -27 -14 -22 -1 -40 -36 -19 -36 6 0 8 7 5 15 -4 10 -2 13
8 10 14 -6 21 -35 9 -35 -4 0 -12 -10 -20 -23 -13 -20 -13 -21 2 -9 10 9 17
10 22 2 3 -5 12 -10 18 -9 9 0 9 2 0 5 -6 3 -9 17 -7 32 8 42 21 47 18 7 -2
-26 0 -34 9 -29 7 4 9 4 5 -1 -4 -4 -2 -15 5 -24 11 -14 10 -14 -5 -2 -16 12
-18 11 -18 -3 0 -9 4 -16 9 -16 5 0 11 -6 14 -13 3 -8 -1 -14 -9 -14 -7 0 -10
5 -7 10 4 6 1 7 -7 2 -9 -6 -11 -4 -5 5 5 9 4 11 -3 6 -8 -4 -10 -2 -6 7 3 8
-2 17 -12 21 -14 5 -15 4 -4 -9 7 -8 9 -15 5 -15 -4 0 -2 -6 4 -14 9 -11 9
-15 -1 -19 -11 -4 -10 -6 0 -6 7 -1 10 -6 7 -11 -4 -6 -1 -9 7 -8 7 2 12 -3
11 -9 -2 -7 2 -13 8 -13 5 0 8 -4 5 -8 -2 -4 -1 -14 3 -21 6 -9 11 -10 15 -2
4 6 3 11 -3 11 -5 0 -8 11 -7 25 2 13 0 22 -5 20 -4 -3 -10 -1 -14 5 -3 6 3
10 15 10 16 0 20 -5 16 -17 -3 -10 -2 -24 3 -32 10 -16 2 -53 -10 -45 -5 3 -9
0 -9 -5 0 -6 3 -11 8 -12 4 0 17 -2 30 -5 12 -2 22 1 22 7 0 5 5 7 11 3 8 -4
2 -12 -15 -21 -15 -8 -24 -18 -21 -23 9 -15 17 -12 9 3 -4 6 -4 9 1 5 4 -4 15
-2 23 5 10 8 13 8 9 1 -4 -7 0 -15 9 -18 9 -4 14 -9 10 -13 -3 -3 2 -16 11
-27 18 -21 18 -21 -4 -2 -13 11 -23 14 -23 8 0 -6 9 -17 20 -25 18 -13 19 -15
5 -21 -23 -8 -35 1 -28 21 4 11 3 14 -5 9 -7 -4 -10 -2 -9 6 2 7 2 10 0 5 -3
-4 -8 -5 -12 -3 -4 3 -8 -1 -8 -9 0 -8 4 -12 9 -9 4 3 8 -2 8 -10 0 -8 9 -18
21 -21 20 -7 20 -7 2 -21 -17 -14 -16 -14 5 -4 12 6 22 15 22 20 0 6 5 10 10
10 6 0 3 -11 -5 -24 -24 -35 -6 -66 35 -61 19 2 29 -1 27 -8 -1 -7 4 -11 11
-9 8 1 11 -2 8 -7 -4 -5 -2 -12 4 -16 5 -3 10 -14 9 -23 0 -14 -2 -14 -6 -2
-7 19 -34 50 -43 50 -12 0 -4 -68 9 -84 7 -8 10 -20 6 -25 -3 -7 0 -8 10 -5
11 5 14 2 9 -10 -3 -9 -1 -16 6 -16 6 0 8 -5 4 -12 -4 -7 3 -4 16 7 l23 20
-12 -22 c-7 -15 -8 -24 -1 -28 6 -4 8 -11 5 -16 -4 -5 1 -12 9 -15 9 -3 14
-10 11 -14 -3 -5 5 -6 17 -3 22 4 22 4 5 -10 -18 -15 -18 -15 2 -22 12 -3 19
-11 16 -16 -3 -5 1 -6 9 -3 10 4 13 0 11 -13 -2 -10 -4 -20 -4 -23 -1 -3 -5 1
-10 9 -5 8 -11 9 -15 3 -12 -20 23 -20 41 0 10 12 13 19 8 15 -7 -3 -11 4 -11
18 0 13 3 22 7 19 4 -2 10 2 12 8 3 8 6 6 6 -4 1 -10 -4 -18 -11 -18 -9 0 -9
-3 -1 -11 13 -13 6 -39 -15 -55 -13 -9 -12 -11 2 -11 9 0 16 4 16 9 0 5 5 6
10 3 8 -5 7 -12 -2 -23 -10 -12 -10 -14 -1 -8 12 7 18 -5 14 -28 -1 -5 5 -4
13 4 9 7 16 9 16 4 0 -4 5 -3 12 4 19 19 28 14 24 -10 -3 -13 -5 -27 -5 -31
-1 -5 -5 -6 -9 -3 -5 3 -9 -1 -9 -9 0 -12 3 -12 16 -2 9 6 19 16 22 21 4 4 15
3 25 -3 11 -6 13 -11 6 -11 -7 0 -10 -5 -6 -12 5 -7 11 -5 21 7 7 11 13 14 13
8 0 -7 -4 -15 -10 -18 -5 -3 -10 -11 -10 -17 0 -7 5 -7 14 1 13 11 66 0 66
-14 0 -2 -12 0 -26 5 -34 13 -39 13 -24 -5 7 -8 17 -12 24 -8 6 4 5 -1 -3 -10
-16 -20 -2 -23 19 -5 12 11 12 10 2 -4 -9 -11 -10 -18 -2 -23 5 -3 10 -1 10 6
0 16 11 5 14 -13 3 -25 16 -35 41 -33 14 2 23 -1 20 -5 -3 -5 -11 -7 -18 -4
-8 3 -13 -4 -14 -17 -2 -17 1 -18 13 -9 8 7 14 9 14 4 0 -5 4 -3 9 5 11 17 41
24 41 9 0 -6 -7 -7 -16 -4 -10 4 -14 1 -12 -6 6 -16 28 -18 48 -4 13 10 13 9
0 -8 -13 -16 -12 -20 3 -30 12 -10 14 -15 5 -24 -7 -7 -8 -12 -2 -12 6 0 14 4
20 10 6 6 15 5 24 -1 13 -9 12 -10 -2 -5 -22 7 -33 -10 -12 -18 8 -3 25 -1 37
5 12 7 19 8 15 4 -10 -11 15 -33 32 -28 13 4 13 3 1 -5 -12 -9 -12 -13 2 -27
10 -9 17 -21 17 -26 0 -5 4 -9 10 -9 5 0 8 6 6 13 -1 6 -1 9 1 4 3 -4 9 -4 15
-1 5 3 4 -3 -3 -14 -7 -12 -16 -19 -20 -16 -4 2 -12 -3 -19 -11 -9 -10 -9 -15
-1 -15 6 0 11 4 11 9 0 6 9 8 20 6 11 -2 18 0 15 4 -2 5 6 16 20 25 26 17 39
8 28 -20 -4 -12 -3 -15 5 -10 7 4 12 2 12 -4 0 -6 4 -9 8 -6 11 6 9 -36 -2
-53 -7 -10 -6 -12 4 -6 10 6 12 4 7 -9 -5 -14 -3 -15 13 -6 25 13 33 13 24 -3
-6 -9 -4 -9 8 1 11 9 18 10 23 2 3 -5 1 -10 -6 -10 -7 0 -9 -3 -6 -6 4 -4 13
-1 21 5 10 8 16 9 21 1 3 -6 11 -7 17 -4 7 4 5 10 -6 16 -9 5 -21 6 -27 2 -8
-4 -8 0 0 15 7 11 14 21 17 21 3 0 2 -4 -1 -10 -3 -5 5 -15 19 -22 14 -6 26
-15 26 -20 0 -4 5 -8 11 -8 6 0 9 6 6 14 -4 10 0 12 16 8 12 -3 16 -7 9 -10
-7 -2 -9 -9 -6 -14 4 -6 2 -8 -4 -4 -6 3 -17 0 -25 -8 -8 -8 -17 -13 -19 -11
-3 3 -5 -2 -5 -10 0 -19 13 -19 21 0 3 8 13 15 23 15 15 0 16 -2 3 -10 -9 -6
-10 -10 -3 -10 13 0 39 39 35 53 -1 5 2 6 8 2 6 -3 8 -10 5 -15 -3 -4 2 -10
10 -14 9 -3 12 -12 8 -22 -5 -14 -3 -15 17 -4 21 11 26 10 42 -10 10 -12 18
-27 18 -34 0 -8 -2 -8 -8 0 -4 6 -15 10 -24 8 -10 -1 -21 3 -25 8 -3 6 -1 8 4
5 6 -4 13 0 17 8 3 8 2 15 -2 15 -16 -1 -28 -16 -30 -40 -1 -17 2 -20 7 -11 6
9 11 10 15 3 4 -6 14 -8 23 -5 12 5 14 3 8 -8 -7 -11 -6 -12 7 -2 8 7 18 10
21 6 4 -3 -1 -12 -11 -19 -9 -8 -12 -14 -5 -14 6 0 15 4 18 10 9 15 48 13 39
-3 -4 -7 -3 -9 2 -4 5 5 9 12 9 16 0 4 8 15 18 25 9 10 17 12 17 6 0 -6 -6
-13 -12 -15 -7 -3 -14 -17 -15 -32 -1 -19 1 -22 8 -12 7 12 9 12 10 -1 1 -8 1
-18 1 -21 -1 -3 5 -6 13 -6 8 0 12 4 9 9 -3 4 0 8 5 8 6 0 11 -5 11 -12 0 -6
3 -9 6 -6 3 4 0 17 -7 29 -9 17 -9 24 0 27 6 2 9 8 6 13 -4 5 1 6 10 3 11 -5
14 -2 9 12 -5 16 -4 16 5 4 8 -11 7 -18 -5 -27 -9 -6 -11 -14 -5 -17 5 -4 17
4 25 16 9 12 16 18 16 12 0 -14 -35 -45 -43 -39 -4 3 -2 -1 4 -8 8 -9 16 -6
34 15 23 27 24 27 30 7 4 -11 9 -18 12 -15 4 3 12 -2 19 -12 12 -16 13 -16 19
1 4 9 11 17 16 17 5 0 4 -9 -3 -20 -7 -11 -19 -18 -26 -15 -8 3 -10 0 -6 -7 4
-7 3 -8 -4 -4 -7 4 -12 2 -12 -4 0 -6 10 -8 25 -4 14 3 24 2 23 -2 -2 -5 0 -9
3 -9 3 0 13 -5 21 -12 8 -7 27 -10 42 -7 19 3 25 1 21 -6 -4 -7 2 -6 14 2 17
10 23 11 30 0 6 -10 15 -9 44 3 30 12 35 13 31 1 -3 -8 0 -17 5 -21 6 -3 8
-12 4 -18 -5 -9 -3 -9 8 0 12 10 19 10 35 -1 18 -13 20 -12 21 7 2 17 0 19 -7
7 -7 -11 -10 -11 -10 -2 0 7 -4 11 -9 7 -6 -3 -15 4 -21 16 -9 17 -9 20 0 14
8 -5 20 1 31 16 18 24 18 24 12 2 -3 -13 -10 -23 -15 -23 -5 0 -6 -5 -3 -10 5
-8 11 -8 19 -1 7 6 17 7 21 3 5 -4 5 2 1 13 -6 16 -5 17 5 8 9 -9 9 -16 2 -25
-13 -16 -14 -70 -1 -62 5 3 7 13 4 21 -3 8 1 24 9 36 8 12 15 17 15 11 0 -6
16 -11 35 -12 19 -1 51 -3 70 -4 33 -2 54 -21 35 -33 -13 -8 -32 4 -25 16 8
12 -2 11 -27 -2 -16 -9 -19 -8 -13 2 6 9 3 11 -9 6 -10 -4 -15 -3 -11 3 3 6 1
10 -4 10 -6 0 -11 -4 -11 -9 0 -5 -14 -7 -31 -6 -21 2 -27 -1 -21 -7 6 -6 8
-18 5 -27 -3 -10 1 -8 10 5 12 15 24 20 42 17 14 -3 22 -10 18 -16 -3 -5 -1
-7 5 -3 5 3 12 3 15 -1 2 -5 2 -2 0 6 -2 9 2 11 14 6 10 -4 27 -8 38 -8 11 -1
26 -9 33 -19 7 -10 18 -18 24 -18 7 0 4 6 -7 13 -11 9 -15 19 -10 27 5 8 4 11
-3 6 -6 -3 -9 1 -8 11 2 10 -4 24 -13 31 -14 11 -13 11 7 2 12 -6 21 -14 18
-18 -9 -15 20 -29 70 -34 13 -1 13 -16 -1 -38 -7 -12 -6 -13 7 -3 8 7 18 10
21 6 4 -3 7 -1 7 5 0 7 10 12 22 12 17 0 19 -3 10 -12 -7 -7 -12 -17 -12 -23
0 -5 5 -2 11 8 6 9 14 15 19 12 4 -3 11 2 14 10 5 13 9 14 28 3 13 -7 26 -11
31 -10 4 1 7 -6 8 -16 0 -12 3 -11 10 7 8 20 12 21 25 10 13 -10 17 -10 25 2
5 8 9 10 9 5 0 -5 11 1 25 14 14 13 25 19 25 14 0 -5 5 -2 10 6 5 8 10 10 10
4 0 -5 -7 -19 -15 -30 -9 -12 -14 -14 -15 -6 0 7 -5 10 -11 6 -7 -4 -8 -9 0
-17 7 -7 15 -6 25 3 13 10 17 9 25 -11 10 -24 10 -24 8 3 -1 15 -5 24 -11 21
-5 -4 -6 -1 -1 6 10 17 26 1 28 -27 1 -12 5 -18 9 -14 12 12 -12 73 -25 65 -6
-3 -7 -1 -3 6 6 9 11 9 22 0 8 -6 15 -9 15 -5 1 3 2 10 3 15 0 5 4 12 8 16 3
4 5 0 4 -9 -1 -8 -5 -19 -9 -22 -11 -11 -8 -34 3 -34 6 0 10 6 10 14 0 8 4 17
9 20 5 3 8 -5 7 -18 0 -13 -4 -22 -8 -20 -4 2 -10 -1 -14 -8 -4 -7 -4 -10 1
-6 4 4 14 3 20 -2 9 -8 12 -5 11 7 0 10 4 19 9 20 6 1 9 -4 7 -12 -1 -8 6 -12
22 -11 13 0 22 4 19 9 -5 9 27 4 45 -7 8 -5 18 -4 25 3 6 6 15 11 21 11 6 0 5
-5 -2 -12 -7 -7 -12 -17 -12 -23 0 -5 5 -2 11 8 6 9 15 14 21 11 6 -4 8 -3 5
3 -4 6 -1 13 6 15 16 6 38 -2 33 -11 -3 -4 1 -8 9 -8 8 0 15 5 15 10 0 5 6 7
13 4 7 -3 13 3 13 14 0 12 -4 15 -12 9 -6 -6 -15 -6 -19 -2 -5 4 -5 1 -1 -5 4
-7 3 -13 -2 -13 -5 0 -12 8 -16 17 -3 10 -9 24 -12 32 -4 7 3 4 15 -8 20 -20
22 -21 48 -4 26 17 26 17 14 -4 -11 -22 2 -43 14 -23 5 8 11 7 21 -1 8 -6 14
-8 14 -3 0 5 5 2 11 -6 9 -13 10 -12 5 3 -5 14 -2 17 12 13 10 -4 27 1 38 9
28 21 40 18 19 -5 -10 -11 -13 -20 -7 -20 7 0 12 5 12 12 0 6 3 8 7 5 3 -4 12
-2 18 3 9 7 16 6 25 -5 7 -8 18 -15 24 -15 6 0 4 5 -4 10 -17 11 -16 12 25 14
23 1 29 6 27 19 -2 9 2 17 8 17 5 0 11 -4 11 -10 1 -5 2 -14 3 -19 0 -5 5 -13
10 -18 5 -4 6 -3 3 3 -4 7 4 19 16 27 21 14 25 13 35 -1 10 -14 11 -13 2 5
-11 23 -36 25 -52 2 -8 -12 -9 -12 -5 1 7 23 -31 23 -43 0 -6 -10 -19 -18 -29
-17 -11 0 -17 5 -14 11 4 5 0 6 -8 1 -12 -7 -12 -6 0 6 10 11 15 11 18 2 8
-23 25 -14 18 10 -4 15 -3 18 3 8 7 -10 11 -10 17 -1 4 6 13 9 21 6 8 -3 14 0
14 7 0 8 3 8 8 2 10 -15 31 -13 42 4 7 12 11 12 24 2 19 -16 22 -1 4 18 -11
11 -10 12 2 5 8 -5 21 -9 29 -11 8 -1 21 -9 30 -19 13 -14 13 -15 1 -9 -8 5
-11 4 -7 0 10 -11 39 -16 32 -5 -3 4 2 10 10 14 8 3 19 -2 24 -11 8 -14 9 -14
15 3 3 11 15 20 26 21 11 1 18 -2 16 -6 -3 -4 1 -8 8 -8 11 0 12 4 3 18 -7 12
-15 15 -21 9 -9 -9 -35 15 -36 34 0 6 6 1 14 -10 8 -11 18 -15 23 -10 4 5 2
11 -4 13 -7 3 -13 8 -13 13 0 9 18 8 35 -1 17 -9 38 -5 43 10 3 8 0 11 -7 7
-7 -5 -9 -1 -5 9 6 14 8 14 20 -2 13 -17 13 -17 14 0 0 9 5 17 11 17 5 0 7 4
4 10 -4 6 1 7 11 3 14 -5 16 -3 10 13 -6 16 -5 17 6 6 11 -11 9 -17 -12 -33
-21 -16 -22 -18 -5 -14 11 4 6 -2 -12 -12 -27 -16 -29 -20 -16 -32 8 -7 17
-10 21 -6 3 3 0 11 -8 16 -12 9 -12 10 3 5 11 -3 20 0 23 9 4 8 11 12 18 8 6
-4 4 2 -4 12 -14 17 -13 18 2 13 14 -6 15 -2 8 23 -8 27 3 49 17 35 4 -3 1 -6
-7 -6 -9 0 -10 -3 -1 -13 6 -8 7 -18 3 -22 -4 -5 -1 -5 6 -1 7 4 10 12 6 17
-3 6 1 18 10 27 9 11 12 23 7 31 -6 9 -11 10 -15 2 -4 -6 -5 -15 -2 -20 4 -5
-3 -7 -14 -4 -19 5 -19 6 5 25 14 11 25 25 24 31 -3 24 1 37 12 37 5 0 7 -6 3
-12 -11 -17 -12 -48 -4 -53 4 -3 7 7 6 22 0 14 5 28 12 30 6 3 10 -1 9 -9 -2
-7 -2 -10 0 -5 3 4 8 5 12 3 4 -3 8 1 8 9 0 8 -5 11 -10 8 -6 -4 -8 0 -5 8 3
8 0 23 -7 32 -12 16 -13 16 -26 0 -12 -14 -12 -16 2 -11 9 4 16 1 16 -7 0 -11
-5 -11 -19 -4 -14 8 -16 14 -9 23 6 7 7 17 3 21 -4 5 -1 4 7 0 11 -6 13 -4 8
11 -7 18 -6 18 6 2 8 -10 18 -14 22 -10 5 4 5 1 1 -5 -4 -7 -2 -13 3 -13 21 0
11 26 -16 42 -16 10 -22 18 -15 18 7 0 10 4 7 10 -3 5 0 7 8 4 8 -3 14 2 14
11 0 9 -6 14 -14 11 -8 -3 -11 -1 -8 4 9 15 32 12 39 -6 4 -10 2 -13 -7 -8 -6
4 -9 4 -5 -1 4 -4 3 -16 -2 -25 -10 -19 -2 -20 33 -5 15 6 16 10 5 16 -10 6
-9 11 6 22 16 12 16 14 2 14 -9 0 -16 -4 -16 -9 0 -4 -8 0 -18 10 -17 16 -9
37 10 26 16 -10 8 9 -9 22 -14 11 -14 13 -3 9 18 -6 21 30 6 55 -8 12 -7 13 6
3 15 -13 28 -8 28 9 0 5 -4 6 -10 3 -5 -3 -10 -1 -10 5 0 7 7 9 16 6 10 -4 14
-2 11 6 -2 7 -9 12 -15 11 -6 -2 -9 4 -5 12 5 14 7 13 18 -1 6 -9 17 -14 23
-10 20 12 13 -3 -13 -32 -14 -15 -23 -34 -20 -43 3 -10 1 -20 -5 -24 -6 -3 -8
-11 -4 -16 3 -5 0 -17 -7 -25 -10 -12 -9 -13 5 -8 9 3 16 12 16 20 0 8 6 14
13 14 8 0 8 3 2 8 -12 8 -12 43 -1 61 6 9 11 9 21 1 10 -8 15 -8 21 1 4 7 3 9
-4 5 -6 -3 -13 -2 -17 3 -3 5 3 14 12 20 15 9 16 12 3 20 -8 5 -17 8 -20 6 -3
-2 -11 5 -18 16 -7 10 -8 19 -3 19 5 0 12 -6 14 -12 4 -9 6 -9 6 1 1 11 5 10
17 -5 15 -18 15 -18 5 3 -6 12 -20 25 -32 28 -19 6 -19 8 -5 24 9 10 13 21 10
24 -4 4 -2 13 4 20 7 8 9 17 6 20 -4 4 0 17 8 29 8 13 14 31 12 41 -1 9 2 17
8 17 6 0 7 -7 4 -16 -3 -8 -2 -12 3 -9 6 3 9 14 8 25 -1 10 -4 17 -8 14 -4 -2
-1 13 6 34 l13 37 -51 3 c-43 3 -54 0 -73 -21 -13 -14 -20 -28 -17 -31 4 -3 1
-6 -6 -6 -7 0 -9 -5 -5 -12 5 -8 2 -9 -10 -5 -10 4 -15 3 -11 -3 6 -10 -13
-50 -30 -62 -5 -4 -19 -5 -30 -2 -16 4 -15 1 5 -11 25 -16 25 -16 2 -11 -17 3
-21 1 -14 -7 6 -8 1 -20 -16 -37 -13 -14 -22 -20 -18 -13 3 6 2 14 -3 17 -5 4
-8 -4 -7 -16 1 -15 -10 -34 -31 -55 -18 -17 -33 -29 -33 -26 0 2 -7 -3 -16
-11 -8 -9 -21 -13 -27 -9 -6 4 -8 1 -5 -8 3 -9 -10 -25 -33 -41 -22 -16 -39
-23 -39 -16 0 7 -7 2 -16 -10 -9 -14 -22 -21 -31 -18 -8 3 -12 2 -9 -2 9 -14
-179 -96 -195 -86 -5 3 -9 0 -9 -5 0 -6 -9 -11 -21 -11 -11 0 -29 -5 -40 -10
-13 -7 -19 -7 -19 0 0 5 -5 10 -11 10 -5 0 -8 -4 -5 -9 8 -12 -11 -18 -61 -16
-23 0 -39 -3 -37 -7 3 -4 -15 -7 -38 -7 -24 0 -55 -2 -70 -4 -18 -3 -25 0 -21
7 3 6 0 5 -8 -2 -7 -6 -22 -12 -33 -11 -21 0 -21 0 -1 9 16 7 17 9 3 9 -9 1
-19 -3 -22 -7 -3 -4 -24 -7 -48 -5 -24 2 -72 5 -108 7 -36 2 -90 7 -120 11
-73 9 -102 13 -117 14 -7 1 -13 6 -13 12 0 5 5 7 12 3 7 -5 8 -3 3 6 -6 10
-11 9 -21 -4 -7 -10 -15 -13 -18 -7 -4 6 -13 8 -21 4 -9 -3 -21 0 -29 6 -7 6
-16 7 -20 3 -4 -4 -14 2 -22 12 -8 11 -14 14 -14 8 0 -7 -4 -12 -10 -12 -5 0
-10 6 -10 14 0 8 -4 18 -10 21 -6 4 -7 -1 -3 -12 6 -16 5 -16 -10 -4 -12 9
-17 10 -17 2 0 -7 -5 -9 -10 -6 -6 4 -8 11 -5 16 3 5 0 6 -8 3 -8 -3 -41 4
-73 16 -33 11 -66 22 -74 24 -8 2 -14 13 -14 24 1 12 -3 19 -7 16 -5 -3 -7 -9
-4 -14 12 -20 -15 -18 -41 2 -15 13 -25 18 -21 11 4 -6 -13 -1 -37 11 -24 11
-41 25 -38 30 3 5 0 6 -6 2 -13 -8 -62 13 -62 27 0 5 -7 6 -15 3 -10 -4 -19 2
-25 17 -5 12 -9 16 -9 9 -1 -7 -6 -10 -11 -7 -6 4 -7 11 -4 17 4 7 2 8 -4 4
-13 -8 -152 79 -152 95 0 6 -4 7 -10 4 -5 -3 -10 -1 -10 4 0 6 -6 11 -12 11
-7 0 -38 23 -68 50 -30 27 -58 50 -62 50 -4 0 -4 7 -1 17 5 11 3 14 -6 9 -8
-6 -27 7 -52 35 -21 24 -39 47 -39 52 0 4 -4 5 -10 2 -5 -3 -10 2 -10 12 -1
20 -23 53 -35 53 -5 0 0 -9 10 -20 10 -11 14 -20 9 -20 -6 0 -21 18 -34 39
-14 21 -29 36 -34 33 -5 -3 -6 0 -3 5 4 6 0 14 -9 17 -15 6 -15 9 2 29 18 21
18 21 0 7 -16 -13 -20 -12 -32 5 -8 10 -14 25 -14 34 0 8 -3 12 -6 8 -10 -10
-42 36 -36 52 3 9 1 12 -6 7 -8 -4 -10 -2 -6 7 3 8 0 18 -7 23 -8 5 -10 3 -4
-6 5 -9 4 -11 -4 -6 -6 4 -9 12 -6 17 4 5 0 9 -7 9 -9 1 -7 5 5 14 9 7 17 17
17 21 0 4 -7 2 -15 -5 -12 -10 -19 -10 -27 -2 -7 7 -8 12 -3 12 4 0 0 10 -11
22 -12 13 -13 18 -4 13 8 -5 3 4 -12 19 -15 16 -26 32 -23 36 3 4 -2 13 -11
20 -8 7 -13 19 -10 26 3 7 1 16 -5 19 -5 4 -7 11 -4 16 4 5 1 9 -4 9 -6 0 -10
3 -10 8 3 19 -2 33 -11 27 -5 -3 -7 0 -4 9 3 8 11 14 17 12 7 -1 9 -1 4 1 -4
3 -4 9 -1 15 4 6 0 6 -13 0 -14 -8 -20 -8 -21 1 -1 24 -11 56 -23 79 -8 13
-14 31 -15 41 -1 9 -2 18 -4 20 -1 1 -3 9 -5 17 -2 8 -7 26 -11 40 -3 14 -6
35 -6 47 0 14 -4 20 -12 16 -6 -3 -6 -1 2 8 15 16 16 33 0 23 -7 -4 -8 -3 -4
4 4 7 2 12 -5 12 -7 0 -9 3 -6 6 4 4 13 1 21 -5 10 -8 16 -9 21 -1 3 6 12 7
18 4 8 -4 7 -2 -1 7 -11 12 -14 12 -22 -1 -10 -16 -12 -14 -14 23 -1 14 -8 22
-18 21 -19 -2 -18 10 5 52 12 23 13 34 4 43 -8 8 -8 11 1 11 7 0 12 5 12 11 0
8 -4 8 -14 0 -8 -7 -13 -21 -11 -32 2 -11 0 -17 -5 -14 -6 3 -7 -1 -4 -9 3 -9
2 -16 -3 -16 -5 0 -9 9 -10 20 -1 11 3 20 9 20 6 0 5 7 -3 17 -12 14 -12 16 0
9 9 -6 12 -5 9 5 -3 8 -10 13 -16 12 -13 -3 -9 24 6 39 9 9 11 6 7 -11 -2 -14
0 -19 7 -15 7 5 8 2 3 -6 -5 -9 -4 -11 4 -6 9 6 9 11 0 22 -14 17 2 19 20 2
11 -11 12 -10 5 2 -5 8 -9 18 -9 22 0 3 -4 10 -9 15 -5 5 -6 3 -2 -4 4 -7 2
-13 -3 -13 -6 0 -11 12 -11 28 0 19 3 23 9 13 5 -7 11 -9 14 -5 3 5 -1 15 -8
21 -11 10 -15 8 -21 -10 -5 -12 -8 -25 -9 -29 0 -3 -2 -9 -5 -12 -3 -3 -5 10
-5 29 0 18 3 31 8 28 13 -8 7 10 -10 31 -18 19 -18 19 7 3 13 -9 27 -17 31
-17 11 0 7 50 -4 57 -5 3 1 14 14 25 15 11 18 16 7 12 -23 -8 -23 5 0 23 9 8
12 12 5 9 -11 -6 -27 10 -28 26 0 3 -3 9 -7 13 -3 4 -5 -1 -4 -12 2 -10 -1
-26 -6 -37 -7 -12 -7 -16 0 -12 6 4 10 -2 9 -14 -1 -22 -17 -28 -18 -7 0 6 -2
20 -4 30 -2 9 0 17 4 17 12 0 9 30 -3 30 -6 0 -3 5 6 11 10 5 15 16 12 24 -4
8 -1 15 6 15 6 0 8 -5 4 -12 -4 -7 -3 -8 4 -4 7 4 12 3 12 -3 0 -5 -6 -12 -12
-14 -10 -4 -10 -6 0 -6 7 -1 15 6 18 14 4 8 11 12 17 8 6 -3 7 -1 3 6 -4 6
-11 9 -15 7 -4 -3 -8 12 -8 34 0 21 4 38 10 37 5 -1 12 5 14 13 4 12 3 12 -5
1 -6 -8 -12 -9 -16 -3 -3 6 -2 13 4 17 6 4 7 11 4 17 -4 7 2 8 17 3 23 -7 24
-7 4 9 -27 21 -35 20 -30 -4 3 -17 1 -19 -16 -10 -24 13 -25 21 -1 14 15 -5
15 -4 -1 9 -15 13 -16 19 -7 36 13 25 22 28 13 4 -5 -12 -3 -14 7 -8 9 6 11 4
5 -6 -5 -8 -5 -11 0 -7 4 4 15 2 24 -5 12 -9 11 -7 -2 13 -21 30 -22 47 -3 31
11 -9 16 -9 22 0 4 7 3 9 -4 5 -6 -3 -13 -2 -17 4 -3 5 -1 10 4 10 6 0 11 7
11 15 0 8 6 15 13 15 6 0 4 5 -5 11 -10 5 -18 17 -18 25 0 8 -5 12 -10 9 -6
-4 -7 -12 -3 -18 15 -24 12 -47 -6 -57 -27 -14 -34 -13 -19 4 7 8 16 12 21 9
15 -9 6 10 -10 23 -17 13 -17 14 2 7 l20 -6 -20 23 c-11 13 -15 20 -8 17 6 -4
13 -2 15 5 5 13 41 -3 39 -17 -2 -13 28 -15 36 -3 3 6 1 8 -5 4 -6 -3 -19 5
-31 19 -11 15 -23 25 -28 25 -4 -1 -8 3 -10 10 -1 6 0 7 4 0 2 -5 9 -7 14 -4
6 3 5 11 -2 20 -15 19 -2 18 17 -1 9 -8 21 -15 27 -14 8 0 8 2 -1 6 -6 2 -10
9 -7 13 6 10 -29 32 -37 25 -3 -3 -5 1 -5 9 0 11 5 11 25 0 25 -13 52 -9 52 7
0 13 -18 11 -23 -3 -4 -10 -6 -10 -6 0 -1 7 -5 11 -10 8 -5 -3 -14 1 -21 9 -9
10 -9 15 -1 15 6 0 11 -5 11 -11 0 -7 9 -6 23 4 21 14 25 13 36 -1 6 -10 9
-11 5 -4 -10 22 -12 82 -2 88 8 5 12 -9 9 -36 -2 -13 0 -13 8 -1 10 15 -6 61
-21 61 -5 0 -6 -5 -2 -12 5 -7 3 -8 -6 -3 -8 5 -11 4 -7 -2 4 -6 0 -14 -9 -17
-22 -8 -24 -8 -24 6 0 6 3 8 7 5 3 -4 13 2 20 13 12 18 13 24 1 38 -12 15 -11
16 5 3 10 -8 17 -9 17 -3 0 6 -8 16 -17 22 -14 8 -14 10 -3 9 27 -2 40 1 40
10 0 5 -8 8 -17 6 -10 -1 -12 0 -5 2 6 3 12 9 12 15 0 5 7 8 15 4 8 -3 15 -1
15 5 0 5 -7 12 -15 15 -8 4 -15 11 -15 16 0 6 6 6 14 -1 9 -7 17 -8 20 -2 3 5
3 11 -1 14 -5 2 -2 2 5 1 6 -2 12 2 12 8 0 6 12 1 27 -13 18 -16 22 -17 11 -4
-13 16 -14 22 -3 32 10 9 16 9 26 0 7 -7 5 -1 -6 12 -11 13 -19 31 -17 41 2
10 -3 22 -9 26 -9 5 -10 2 -6 -9 3 -10 2 -17 -3 -17 -14 0 -12 27 2 36 6 4 14
2 16 -4 2 -7 8 -9 14 -6 7 4 1 14 -13 26 -13 10 -17 16 -8 12 11 -3 24 5 38
24 23 32 27 52 11 52 -5 0 -10 5 -10 11 0 8 4 8 14 0 8 -6 19 -10 26 -9 7 2
15 -3 17 -9 3 -7 0 -13 -7 -13 -6 0 -8 5 -4 12 4 7 3 8 -4 4 -8 -5 -9 -13 -2
-26 7 -14 6 -19 -6 -24 -12 -5 -15 -2 -10 9 3 10 2 13 -5 10 -6 -4 -8 -14 -5
-22 3 -8 2 -11 -4 -8 -5 3 -7 -4 -5 -15 2 -12 0 -18 -6 -15 -5 4 -9 3 -8 -2 1
-4 1 -10 -1 -13 -8 -21 -8 -50 0 -55 6 -4 7 1 3 11 -5 13 -3 15 8 9 11 -6 11
-5 2 5 -8 9 -7 17 5 31 10 11 17 25 17 32 0 7 8 11 16 11 10 -1 16 6 15 20 -1
11 4 20 9 19 6 -1 11 7 11 17 0 10 -4 16 -8 14 -4 -3 -8 0 -8 5 0 6 4 11 9 11
18 0 62 48 51 55 -14 9 -42 -14 -33 -28 4 -6 1 -7 -7 -2 -9 5 -11 4 -6 -3 4
-7 4 -12 -1 -13 -4 0 -19 -2 -33 -4 -14 -2 -19 -1 -12 1 6 3 9 11 5 17 -4 8
-1 7 9 -1 13 -10 17 -10 21 0 2 7 4 15 4 18 0 3 5 15 11 27 10 18 9 22 -6 27
-13 4 -12 4 3 3 13 -2 19 -9 17 -20 -2 -11 2 -15 12 -11 12 5 13 10 5 25 -13
25 -4 40 19 32 15 -6 15 -4 4 9 -11 14 -10 18 5 26 17 10 25 12 41 12 4 0 0 5
-8 10 -13 9 -13 10 0 11 8 1 18 1 23 0 4 0 7 4 7 10 0 5 4 8 9 5 5 -3 12 1 15
10 9 23 7 31 -3 15 -7 -10 -12 -11 -27 -1 -16 9 -16 11 -2 6 10 -3 20 -1 23 5
4 5 11 7 16 4 5 -4 9 -1 9 4 0 6 -8 11 -17 12 -13 0 -12 3 6 10 20 8 22 11 10
27 -12 15 -12 16 2 5 9 -7 20 -9 25 -5 4 4 2 -1 -6 -11 -7 -10 -15 -26 -16
-35 -4 -40 -22 -74 -35 -66 -4 2 -13 -4 -20 -13 -12 -14 -12 -16 0 -8 10 5 12
4 7 -4 -4 -6 -12 -9 -17 -6 -5 4 -9 2 -9 -4 0 -5 -6 -16 -14 -24 -13 -12 -10
-14 17 -14 18 0 24 2 15 4 -33 8 -17 30 17 23 6 -1 7 1 3 5 -9 9 23 45 34 39
5 -3 8 -2 7 3 -4 21 2 44 10 39 4 -3 6 5 4 18 -6 30 16 45 33 22 8 -11 14 -13
19 -7 3 6 1 11 -5 11 -6 0 -8 5 -4 12 5 7 11 5 21 -8 11 -14 14 -15 13 -4 -4
25 0 44 6 37 3 -3 17 7 31 24 14 16 33 28 42 27 9 -2 17 4 17 12 1 8 2 21 3
28 0 7 6 10 11 7 6 -4 8 -10 6 -14 -3 -4 1 -8 9 -8 12 0 12 4 -2 19 -16 18
-18 18 -30 2 -12 -16 -13 -16 -13 -1 0 9 -4 17 -10 17 -5 0 -10 5 -10 11 0 8
5 7 15 -1 9 -7 18 -10 22 -6 3 3 17 -1 31 -10 13 -9 22 -12 19 -8 -3 5 1 15 9
22 8 7 14 9 14 5 0 -4 7 0 14 10 8 10 23 19 34 20 16 1 18 4 9 18 -6 10 -15
15 -20 12 -5 -3 -3 -10 4 -15 10 -6 7 -7 -10 -3 -13 4 -21 3 -18 -2 3 -5 1
-15 -5 -23 -8 -13 -9 -12 -5 2 4 9 -1 19 -10 22 -11 5 -14 2 -9 -10 4 -9 1
-23 -5 -30 -9 -11 -13 -11 -25 1 -8 8 -22 12 -32 9 -16 -5 -15 -5 1 6 9 6 21
8 27 5 5 -3 14 4 20 15 8 15 8 20 -1 20 -7 0 -9 3 -6 6 4 4 13 1 21 -5 12 -10
20 -9 40 4 14 9 27 16 30 16 17 -3 20 0 8 8 -11 7 -10 9 3 14 9 4 13 3 10 -3
-3 -6 1 -10 10 -10 9 0 13 -5 10 -10 -4 -6 -10 -8 -15 -5 -5 3 -11 1 -14 -4
-4 -5 -2 -12 3 -15 11 -7 62 55 54 67 -3 4 -11 0 -19 -10 -7 -10 -14 -13 -14
-7 0 6 7 17 15 24 8 7 12 16 9 21 -3 5 0 9 6 9 6 0 10 -7 8 -16 -2 -10 3 -19
11 -22 9 -3 11 0 6 8 -5 9 -4 11 4 6 6 -4 9 -11 6 -16 -3 -4 2 -10 10 -13 11
-5 12 -1 5 18 -5 14 -7 25 -4 25 4 0 0 8 -7 17 -13 17 -13 17 12 1 17 -11 31
-13 40 -7 8 5 12 9 9 10 -34 6 -43 9 -48 15 -4 4 1 4 11 1 10 -4 17 -1 17 6 0
7 5 4 11 -5 9 -15 13 -14 53 12 44 30 77 42 40 16 -15 -12 -17 -17 -6 -27 6
-7 12 -9 12 -3 0 5 5 2 10 -6 8 -13 10 -13 10 1 0 13 9 16 43 14 41 -1 44 0
41 22 -2 18 2 23 11 19 8 -3 17 -2 19 3 3 4 25 7 49 6 36 -1 44 2 39 15 -4 12
-2 12 15 -2 11 -10 23 -18 28 -18 5 0 0 7 -11 15 -17 13 -17 14 -2 15 9 0 20
-4 23 -10 3 -5 11 -10 18 -10 6 0 2 7 -9 15 -13 10 -15 14 -5 15 8 0 24 -8 35
-17 19 -17 20 -17 7 -1 -11 15 -11 19 2 24 16 6 17 20 4 41 -6 9 -3 11 7 7 15
-6 17 -29 4 -50 -4 -6 -1 -11 7 -11 8 0 12 4 9 9 -3 4 8 6 25 4 21 -2 28 1 24
10 -2 7 -13 11 -24 9 -10 -2 -19 1 -19 6 0 5 7 9 16 7 10 -2 19 2 21 9 3 8 -3
11 -17 8 -11 -2 -18 0 -15 6 4 5 0 9 -7 9 -9 0 -9 3 2 10 8 5 20 10 25 10 6 0
3 -5 -5 -10 -8 -5 -12 -10 -7 -11 4 -1 10 -2 15 -3 14 -3 32 -17 32 -27 0 -6
-5 -7 -12 -3 -7 4 -8 3 -4 -5 4 -6 12 -8 18 -5 6 4 8 -1 3 -16 -5 -15 -4 -20
4 -16 6 4 11 15 11 24 1 15 3 14 17 -3 14 -18 15 -18 9 -1 -5 14 -2 17 9 12 9
-3 14 -2 11 2 -2 4 9 15 25 24 16 10 29 13 29 7 0 -6 5 -7 10 -4 8 5 7 11 -1
21 -8 10 -8 14 0 14 6 0 11 -4 11 -9 0 -10 50 -9 68 3 7 4 16 5 19 2 4 -3 1
-6 -5 -6 -7 0 -11 -5 -10 -12 2 -6 -9 -12 -24 -13 -16 -1 -28 3 -28 8 0 6 -8
3 -18 -6 -10 -10 -22 -14 -25 -11 -8 9 -37 -15 -37 -30 0 -7 4 -6 9 2 12 19
64 24 57 5 -3 -8 -2 -12 3 -8 5 3 12 -1 15 -7 3 -7 4 -4 1 8 -4 16 0 20 20 20
17 0 24 -4 21 -13 -3 -7 0 -13 5 -13 6 0 9 9 6 20 -5 20 16 29 27 11 4 -5 14
-8 24 -7 9 2 23 -4 30 -13 11 -14 11 -13 2 7 -9 18 -8 22 5 22 10 0 13 -5 9
-12 -5 -10 -4 -10 6 -1 9 8 19 9 31 3 11 -7 20 -7 24 0 7 12 8 12 -30 14 -32
1 -37 15 -11 31 34 21 69 -31 43 -65 -11 -13 -10 -13 6 -1 16 12 22 9 18 -12
-1 -5 3 -6 9 -2 7 4 8 11 2 18 -9 11 -14 67 -6 67 2 0 8 -10 15 -21 7 -15 8
-19 0 -15 -7 5 -8 1 -4 -11 6 -14 9 -12 20 15 15 36 28 44 17 10 l-6 -23 23
22 c21 18 27 20 47 9 12 -7 19 -15 16 -19 -4 -4 -3 -7 2 -7 6 0 15 5 22 12 6
6 15 8 19 5 4 -4 -1 -15 -12 -25 -13 -12 -16 -13 -10 -2 6 12 5 13 -6 3 -14
-14 -30 -17 -28 -5 3 20 -2 32 -12 26 -8 -4 -7 -9 2 -16 11 -8 11 -9 -1 -5 -8
2 -14 13 -12 23 3 15 1 17 -9 7 -18 -18 -20 -43 -3 -36 10 4 13 0 8 -13 -4
-14 -3 -16 4 -5 7 10 14 11 31 2 12 -7 19 -16 16 -21 -3 -5 0 -12 6 -16 7 -4
9 -3 5 4 -3 6 -2 13 4 17 6 4 7 11 4 17 -5 8 -1 9 10 5 9 -4 15 -3 12 1 -2 4
2 16 10 27 14 19 15 18 9 -12 -3 -20 -1 -33 5 -33 10 0 13 11 11 45 -1 19 0
19 7 1 8 -17 9 -17 24 -2 22 21 26 20 24 -6 -3 -33 4 -42 19 -22 11 16 13 16
25 -5 10 -19 10 -22 -2 -16 -10 6 -10 5 -1 -5 13 -15 36 -4 26 13 -3 7 3 3 15
-7 23 -20 31 -9 10 12 -9 9 -9 12 0 12 7 0 12 -5 12 -11 0 -8 6 -7 18 2 14 11
15 11 5 -1 -18 -20 -16 -35 2 -20 10 9 15 9 15 1 0 -6 -5 -11 -11 -11 -5 0 -7
-6 -3 -12 5 -9 2 -9 -9 1 -14 11 -17 11 -17 0 0 -10 -3 -10 -8 -3 -4 6 -15 10
-25 8 -28 -4 -33 -13 -8 -13 70 -2 65 0 45 -24 l-19 -22 25 21 c14 12 32 19
40 17 12 -4 12 -3 1 5 -8 6 -9 12 -3 16 5 3 13 -1 16 -10 4 -10 -1 -18 -13
-21 -11 -3 -22 -12 -26 -20 -4 -13 -3 -14 9 -4 8 7 21 9 27 5 7 -4 9 -3 6 3
-4 6 0 14 9 17 21 8 24 8 24 -5 0 -5 -4 -7 -10 -4 -5 3 -10 2 -10 -2 0 -16 38
-34 46 -21 5 7 2 8 -7 3 -11 -6 -12 -5 -1 6 14 16 16 33 2 24 -15 -9 -12 4 4
21 13 12 14 8 11 -38 -2 -42 -1 -48 8 -32 6 10 12 25 13 32 2 8 5 17 9 20 3 4
4 -6 1 -21 -2 -15 0 -27 5 -27 5 0 9 -5 9 -11 0 -8 -5 -8 -15 1 -10 9 -15 9
-15 1 0 -6 5 -12 10 -12 6 -1 14 -2 19 -3 16 -2 25 -16 11 -16 -9 0 -8 -6 5
-20 l19 -21 13 26 c17 31 20 31 45 -1 11 -14 23 -23 26 -20 2 3 -1 12 -8 21
-7 9 -10 18 -7 21 3 3 13 -9 23 -28 27 -53 34 -59 55 -47 13 6 19 6 19 -1 0
-5 -6 -10 -13 -10 -8 0 -14 -6 -15 -12 0 -7 -2 -22 -5 -33 -2 -11 -2 -14 0 -7
3 7 9 9 15 6 6 -4 8 -3 5 2 -3 6 -1 16 4 24 9 13 10 13 8 0 -3 -28 1 -37 16
-37 18 0 20 13 3 20 -9 4 -9 6 -1 6 13 1 63 -83 63 -106 0 -8 5 -11 13 -7 10
6 10 4 0 -7 -17 -17 -17 -34 0 -21 9 8 17 8 27 0 12 -8 12 -9 -2 -4 -10 3 -20
1 -24 -5 -4 -6 -11 -6 -20 2 -12 10 -12 14 -2 20 10 7 10 9 1 9 -7 0 -10 7 -7
18 5 15 4 15 -6 2 -10 -13 -11 -13 -6 2 7 22 -3 50 -15 42 -5 -3 -7 1 -4 8 4
9 -5 14 -27 14 -30 1 -31 1 -10 -9 12 -5 22 -14 22 -19 0 -5 -9 -4 -21 2 -11
7 -23 9 -27 6 -3 -3 0 -6 7 -6 7 0 9 -4 6 -10 -4 -6 1 -7 11 -3 13 5 15 3 9
-8 -8 -12 -6 -12 9 0 14 12 19 12 29 1 9 -9 9 -11 0 -6 -6 3 -15 1 -19 -5 -4
-8 -3 -9 4 -5 7 4 12 2 12 -3 0 -6 -4 -11 -10 -11 -5 0 3 -12 18 -27 23 -23
35 -28 76 -32 4 -1 5 -8 2 -17 -4 -12 -2 -15 9 -11 8 4 17 1 21 -5 4 -7 3 -8
-4 -4 -15 9 -15 -7 -1 -21 9 -9 7 -11 -7 -9 -11 2 -19 8 -19 15 0 6 -7 16 -15
21 -11 7 -11 10 -2 10 7 0 10 5 6 11 -4 8 -9 7 -14 -2 -7 -10 -12 -10 -23 -1
-11 9 -14 9 -14 -3 0 -7 5 -13 11 -12 6 1 10 -3 9 -9 -1 -7 6 -10 20 -7 21 4
21 4 3 -11 -11 -9 -16 -19 -13 -23 4 -3 7 -3 7 2 0 4 6 2 14 -5 8 -6 12 -19 9
-28 -4 -15 -3 -15 6 -2 7 10 11 11 11 3 0 -7 4 -13 8 -13 5 0 9 7 9 15 0 8 -4
12 -8 9 -4 -2 -11 1 -14 7 -5 7 -1 9 11 7 11 -2 18 -9 17 -16 -2 -7 8 -10 27
-7 17 2 28 0 25 -5 -3 -5 -13 -6 -23 -3 -13 4 -13 2 3 -10 22 -18 14 -22 -14
-8 -10 6 -23 6 -31 1 -12 -7 -11 -9 5 -9 11 0 33 -2 48 -5 21 -3 26 -1 18 8
-7 8 -4 15 9 24 21 13 53 6 44 -10 -4 -6 1 -6 13 1 11 6 24 7 28 3 5 -4 5 -2
1 5 -4 7 -13 10 -20 7 -9 -4 -13 6 -12 34 0 21 5 39 11 39 5 0 19 4 29 9 15 5
17 4 11 -6 -5 -8 -4 -11 3 -6 6 4 8 14 5 23 -5 12 -3 14 7 8 9 -5 11 -4 6 4
-15 23 -17 63 -4 59 7 -3 12 -15 12 -27 -1 -12 1 -19 5 -16 11 12 7 30 -11 57
-18 27 -18 28 2 40 11 7 20 16 20 21 0 4 -6 5 -12 0 -7 -4 -17 -8 -23 -8 -5
-1 -9 -6 -8 -13 3 -14 -13 -16 -21 -3 -3 5 1 12 10 15 15 6 15 8 0 25 -13 14
-14 21 -5 27 8 5 10 3 4 -6 -5 -8 -3 -11 6 -8 8 3 13 12 11 22 -2 9 1 16 6 16
4 0 8 -11 8 -24 0 -14 -4 -22 -8 -20 -4 3 -8 0 -8 -6 0 -7 6 -10 13 -7 6 2 12
19 13 38 1 19 2 39 4 44 1 6 2 13 1 18 0 4 5 7 12 7 9 0 9 2 -1 9 -8 4 -14 12
-14 17 1 5 -5 8 -13 6 -7 -1 -16 2 -20 8 -3 5 0 8 7 5 8 -3 14 4 14 20 1 14
-3 25 -8 25 -6 0 -6 6 2 15 6 8 9 19 5 26 -4 6 -2 15 6 19 16 10 20 50 5 50
-6 0 -3 5 7 11 9 6 14 16 11 22 -4 7 -3 8 2 4 5 -5 9 -13 9 -18 0 -5 3 -9 8
-9 4 0 10 0 13 0 4 0 2 6 -4 13 -8 10 -10 62 -2 62 1 0 4 10 5 22 2 22 -19 38
-36 27 -5 -3 -9 0 -9 7 0 6 8 9 20 6 11 -3 23 0 27 5 3 7 1 8 -5 4 -7 -4 -12
-2 -12 4 0 6 -5 8 -12 4 -9 -5 -9 -2 1 9 9 11 10 17 2 17 -6 0 -11 5 -11 11 0
5 6 7 13 3 9 -6 9 -4 -1 8 -8 10 -9 18 -3 22 6 4 8 13 4 22 -3 8 -8 13 -10 10
-6 -5 -104 23 -118 34 -11 9 -15 10 -51 10 -14 0 -23 3 -21 8 3 4 -13 8 -36
10 -23 1 -45 8 -49 15 -6 9 -8 8 -8 -3 0 -9 -3 -11 -8 -5 -4 6 -13 10 -19 11
-7 1 -23 2 -35 3 -19 1 -20 3 -8 11 8 5 10 10 5 10 -6 0 -16 -5 -23 -12 -9 -9
-12 -9 -12 2 0 7 -3 10 -7 7 -3 -4 -12 1 -20 11 -10 14 -12 14 -8 1 5 -13 0
-15 -27 -11 -18 3 -39 12 -46 21 -11 14 -11 14 -6 -1 8 -24 -1 -22 -26 5 -14
14 -19 16 -15 6 5 -13 1 -15 -19 -12 -14 3 -24 9 -21 12 2 4 -2 8 -10 8 -8 0
-11 -5 -8 -10 4 -6 -5 -7 -23 -3 -16 4 -49 10 -74 12 -25 3 -65 7 -90 10 -25
2 -79 7 -120 10 -41 3 -78 10 -82 17 -6 9 -8 9 -8 -1 0 -9 -19 -11 -77 -7 -42
3 -79 8 -83 10 -3 2 -12 0 -20 -5 -7 -4 -24 -4 -36 0 -14 6 -26 5 -29 0 -3 -5
-15 -6 -29 0 -13 4 -29 4 -37 -1 -9 -5 -16 -4 -19 5 -4 11 -7 11 -19 -1z
m1355 -322 c-4 -5 0 -11 6 -14 10 -4 11 -7 1 -18 -19 -20 -41 4 -23 26 14 16
25 21 16 6z m-1319 -45 c0 -8 -6 -12 -15 -9 -11 5 -11 7 0 14 7 5 13 9 14 9 0
0 1 -6 1 -14z m157 2 c-5 -8 -2 -9 9 -5 23 9 21 0 -2 -13 -16 -8 -19 -7 -16 8
5 23 4 22 11 22 3 0 2 -5 -2 -12z m-99 -41 c4 5 2 -2 -4 -14 -14 -27 -26 -31
-17 -5 5 15 5 15 -7 1 -10 -14 -14 -14 -25 -3 -8 9 -9 14 -2 14 6 0 8 6 4 13
-5 8 -2 8 9 -2 10 -8 17 -9 17 -3 0 6 -4 14 -10 17 -5 3 -10 12 -10 18 0 7 8
0 18 -16 10 -15 22 -24 27 -20z m183 18 c-3 -3 -9 2 -12 12 -6 14 -5 15 5 6 7
-7 10 -15 7 -18z m-438 5 c0 -5 -5 -10 -11 -10 -5 0 -7 5 -4 10 3 6 8 10 11
10 2 0 4 -4 4 -10z m80 6 c0 -3 -4 -8 -10 -11 -5 -3 -10 -1 -10 4 0 6 5 11 10
11 6 0 10 -2 10 -4z m55 -14 c-3 -3 -11 0 -18 7 -9 10 -8 11 6 5 10 -3 15 -9
12 -12z m154 7 c-17 -11 -39 -12 -39 -1 0 4 12 8 27 9 19 1 22 -1 12 -8z m116
1 c-3 -5 -12 -10 -18 -10 -7 0 -6 4 3 10 19 12 23 12 15 0z m115 -5 c0 -8 -4
-15 -8 -15 -5 0 -9 7 -9 15 0 8 4 15 9 15 4 0 8 -7 8 -15z m988 6 c11 -6 9 -9
-5 -13 -12 -3 -20 0 -20 8 0 16 6 17 25 5z m-1548 -21 c0 -5 -2 -10 -4 -10 -3
0 -8 5 -11 10 -3 6 -1 10 4 10 6 0 11 -4 11 -10z m95 0 c3 -5 0 -12 -6 -16 -7
-4 -9 -3 -5 4 4 7 -1 10 -14 9 -11 -1 -20 -7 -20 -15 0 -8 5 -10 13 -6 9 5 9
4 1 -5 -6 -6 -19 -13 -30 -15 -15 -3 -20 2 -21 22 l-2 27 11 -25 c10 -25 11
-24 23 15 3 13 43 17 50 5z m565 6 c0 -3 -4 -8 -10 -11 -5 -3 -10 -1 -10 4 0
6 5 11 10 11 6 0 10 -2 10 -4z m-743 -12 c-3 -3 -12 -4 -19 -1 -8 3 -5 6 6 6
11 1 17 -2 13 -5z m818 -15 c-3 -16 0 -19 18 -14 19 5 20 5 4 -5 -21 -14 -36
-6 -32 18 5 22 4 22 9 22 3 0 3 -9 1 -21z m-920 1 c-3 -5 -12 -10 -18 -10 -7
0 -6 4 3 10 19 12 23 12 15 0z m80 -37 c-2 -10 -4 -20 -4 -22 -1 -3 -6 0 -12
6 -9 9 -19 8 -40 -3 -16 -8 -29 -11 -29 -7 0 5 -7 0 -14 -10 -11 -14 -15 -15
-19 -3 -3 8 0 22 8 32 11 15 15 16 29 5 13 -11 19 -11 31 -1 8 6 19 9 24 6 5
-4 12 -2 16 4 3 5 2 10 -2 10 -5 0 -18 7 -29 15 -17 14 -16 15 13 1 21 -11 30
-22 28 -33z m-118 22 c0 -8 -4 -12 -9 -9 -5 3 -6 10 -3 15 9 13 12 11 12 -6z
m-18 -35 c0 -10 -3 -8 -9 5 -12 27 -12 43 0 25 5 -8 9 -22 9 -30z m81 30 c0
-5 -4 -10 -10 -10 -5 0 -10 5 -10 10 0 6 5 10 10 10 6 0 10 -4 10 -10z m1007
-16 c-3 -3 -12 -4 -19 -1 -8 3 -5 6 6 6 11 1 17 -2 13 -5z m-1127 -14 c0 -5
-8 -10 -17 -10 -15 0 -16 2 -3 10 19 12 20 12 20 0z m1155 -11 c-4 -5 -12 -9
-18 -8 -9 0 -8 2 1 6 6 2 9 10 6 15 -4 7 -2 8 5 4 6 -4 9 -12 6 -17z m-1128
-21 c-6 -4 -14 -5 -18 -2 -4 2 -11 0 -14 -6 -5 -8 -11 -8 -20 0 -9 7 -16 6
-25 -5 -8 -10 -9 -15 -2 -15 6 0 9 -6 6 -13 -3 -8 -18 -13 -37 -12 -18 1 -41
-2 -52 -7 -17 -8 -18 -7 -4 4 8 7 21 22 27 33 6 11 12 15 12 8 0 -6 6 -10 13
-9 19 3 38 17 33 25 -7 12 28 10 35 -2 4 -6 12 -1 20 10 9 16 15 18 25 9 8 -8
9 -13 1 -18z m-101 -5 c-4 -4 -12 -1 -19 7 -9 10 -9 11 1 6 7 -4 12 -2 13 6 0
11 2 11 6 0 3 -7 2 -16 -1 -19z m-48 -8 c-3 -3 -9 2 -12 12 -6 14 -5 15 5 6 7
-7 10 -15 7 -18z m1292 15 c-8 -5 -19 -10 -25 -10 -5 0 -3 5 5 10 8 5 20 10
25 10 6 0 3 -5 -5 -10z m-1355 -9 c3 -5 2 -12 -3 -15 -5 -3 -9 1 -9 9 0 17 3
19 12 6z m16 -24 c-10 -9 -11 -8 -5 6 3 10 9 15 12 12 3 -3 0 -11 -7 -18z
m1422 -12 c-7 -21 -12 -19 -10 4 0 11 5 18 9 15 4 -3 5 -11 1 -19z m-1446 -1
c-3 -3 -12 -4 -19 -1 -8 3 -5 6 6 6 11 1 17 -2 13 -5z m1465 -16 c-17 -17 -15
-28 4 -28 8 0 12 5 9 10 -3 6 -1 10 4 10 14 0 14 -3 -1 -35 -11 -25 -28 -34
-28 -15 0 6 5 10 12 10 6 0 4 6 -6 13 -16 11 -17 17 -6 36 6 13 14 20 18 17 3
-4 0 -12 -6 -18z m-1557 2 c-3 -5 -12 -10 -18 -10 -7 0 -6 4 3 10 19 12 23 12
15 0z m1620 -28 c-3 -3 -11 0 -18 7 -9 10 -8 11 6 5 10 -3 15 -9 12 -12z
m-1695 -27 c0 -8 -2 -15 -4 -15 -2 0 -6 7 -10 15 -3 8 -1 15 4 15 6 0 10 -7
10 -15z m2166 -20 c-2 -23 -26 -60 -26 -39 0 5 -5 2 -10 -6 -6 -10 -10 -11
-10 -2 0 6 9 21 20 32 18 18 18 20 3 21 -15 0 -15 2 2 9 11 5 20 9 21 9 0 1 0
-10 0 -24z m-2192 -5 c-6 -6 -15 -5 -24 1 -13 9 -12 10 3 5 9 -3 17 0 17 6 0
6 3 8 7 5 4 -4 2 -12 -3 -17z m1803 -15 c0 -17 -13 -20 -21 -6 -4 5 0 12 6 14
7 3 13 6 14 6 0 1 1 -6 1 -14z m-1827 -5 c0 -5 -5 -10 -11 -10 -5 0 -7 5 -4
10 3 6 8 10 11 10 2 0 4 -4 4 -10z m-30 -20 c0 -5 -4 -10 -10 -10 -5 0 -10 5
-10 10 0 6 5 10 10 10 6 0 10 -4 10 -10z m-107 -119 c18 -23 24 -42 6 -24 -7
7 -21 0 -45 -24 -19 -18 -40 -30 -46 -27 -8 5 -9 1 -5 -10 4 -9 3 -14 -2 -11
-5 3 -12 1 -16 -5 -10 -15 -25 -2 -18 16 4 11 8 12 13 4 5 -8 9 -7 13 4 4 11
1 16 -11 16 -15 0 -15 2 -2 10 9 6 16 6 18 0 2 -5 17 0 33 12 22 16 26 25 18
35 -8 9 -8 13 -1 13 6 0 12 -6 15 -12 2 -7 8 -9 13 -5 5 5 -2 17 -16 28 -17
14 -19 17 -5 10 11 -5 28 -19 38 -30z m-58 -11 c3 -6 -1 -7 -9 -4 -18 7 -21
14 -7 14 6 0 13 -4 16 -10z m2394 1 c2 -1 -1 -7 -7 -14 -6 -7 -9 -25 -7 -39 3
-15 -1 -30 -10 -38 -17 -14 -40 -3 -27 13 5 7 8 24 7 39 -1 20 2 25 14 20 14
-5 14 -3 3 10 -13 16 -12 17 27 9z m-2409 -16 c0 -1 -12 -2 -26 -2 -17 0 -22
2 -13 7 10 7 39 3 39 -5z m-165 -157 c-9 -6 -19 -7 -22 -4 -4 3 -1 6 6 6 7 0
9 4 6 10 -4 6 1 7 11 3 15 -6 15 -7 -1 -15z m-115 -158 c0 -5 -4 -10 -10 -10
-5 0 -10 5 -10 10 0 6 5 10 10 10 6 0 10 -4 10 -10z m60 -4 c0 -2 -7 -7 -16
-10 -8 -3 -12 -2 -9 4 6 10 25 14 25 6z m-128 -98 c-7 -7 -12 -8 -12 -2 0 14
12 26 19 19 2 -3 -1 -11 -7 -17z m-37 -131 c14 -11 15 -16 4 -22 -20 -13 -59
-15 -59 -4 0 6 5 7 10 4 6 -3 10 -1 10 5 0 6 5 8 10 5 6 -3 10 -2 10 4 0 5 -6
12 -12 14 -7 3 -8 6 -2 6 5 1 18 -5 29 -12z m-124 -200 c-10 -9 -11 -8 -5 6 3
10 9 15 12 12 3 -3 0 -11 -7 -18z m26 -54 c0 -19 -15 -43 -27 -43 -4 0 -7 11
-7 25 0 13 3 22 8 20 4 -3 10 -1 14 5 9 14 12 13 12 -7z m-100 -378 c0 -6 -10
-11 -21 -12 -12 -1 -15 1 -8 4 6 3 10 8 8 12 -3 4 1 8 8 8 7 0 13 -5 13 -12z
m-6 -38 c-1 -4 -4 -7 -8 -6 -4 0 -10 -7 -13 -17 -6 -16 -7 -15 -12 4 -4 12 -2
20 3 16 5 -3 9 0 9 6 0 7 5 10 11 8 6 -2 10 -7 10 -11z m-5 -225 c1 -24 -11
-20 -26 8 -8 15 -6 18 8 16 9 -2 17 -12 18 -24z m-742 -273 c-10 -16 -23 -9
-21 10 1 15 4 17 14 9 7 -5 10 -14 7 -19z m753 -34 c0 -17 -13 -20 -21 -6 -4
5 0 12 6 14 7 3 13 6 14 6 0 1 1 -6 1 -14z m-620 -497 c-3 -8 -6 -5 -6 6 -1
11 2 17 5 13 3 -3 4 -12 1 -19z m23 -38 c0 -5 -9 -14 -20 -20 -16 -9 -18 -8
-14 5 3 8 11 12 17 8 6 -4 8 0 4 11 -4 10 -3 15 3 11 6 -3 10 -10 10 -15z m90
-187 c-1 -5 -7 -19 -14 -32 -11 -20 -14 -21 -19 -7 -4 10 -1 19 8 22 8 4 12
10 9 15 -3 5 0 9 5 9 6 0 11 -3 11 -7z m38 -121 c2 -7 -5 -12 -15 -11 -12 0
-14 2 -4 6 11 5 11 7 0 15 -12 8 -12 9 0 6 8 -3 17 -10 19 -16z m46 -18 c3 -8
2 -12 -4 -9 -6 3 -10 10 -10 16 0 14 7 11 14 -7z m-15 -18 c22 -8 23 -9 7 -18
-14 -8 -23 -5 -39 10 -21 21 -14 23 32 8z m38 -32 c-3 -3 -12 -4 -19 -1 -8 3
-5 6 6 6 11 1 17 -2 13 -5z m-37 -14 c0 -5 -2 -10 -4 -10 -3 0 -8 5 -11 10 -3
6 -1 10 4 10 6 0 11 -4 11 -10z m55 -18 c-3 -3 -11 0 -18 7 -9 10 -8 11 6 5
10 -3 15 -9 12 -12z m-16 -23 c-15 -9 -32 -2 -24 11 3 5 13 6 21 3 12 -4 13
-8 3 -14z m46 -7 c-3 -3 -11 0 -18 7 -9 10 -8 11 6 5 10 -3 15 -9 12 -12z
m-25 -13 c0 -6 7 -8 16 -5 8 3 12 2 9 -4 -3 -5 -16 -8 -28 -6 -12 3 -26 5 -32
5 -5 1 -3 6 5 11 20 13 30 12 30 -1z m49 -30 c-22 -13 -31 -11 -17 5 7 8 17
12 22 9 4 -3 2 -9 -5 -14z m-19 -29 c0 -5 -7 -7 -15 -4 -8 4 -15 8 -15 10 0 2
7 4 15 4 8 0 15 -4 15 -10z m66 -25 c-1 -8 -5 -18 -9 -21 -13 -13 -7 -21 23
-36 l30 -15 -26 -11 c-14 -7 -23 -8 -19 -2 3 5 0 10 -7 11 -11 0 -11 2 0 6 10
4 8 8 -5 18 -14 11 -15 16 -6 26 6 6 9 18 6 25 -3 8 -1 14 5 14 6 0 9 -7 8
-15z m19 -25 c-3 -5 2 -10 11 -10 10 0 15 -3 11 -6 -10 -10 -39 5 -32 16 3 5
8 10 11 10 3 0 2 -4 -1 -10z m58 -53 c3 -8 2 -20 -3 -26 -5 -9 -7 -4 -7 13 0
29 2 32 10 13z m32 -45 c-3 -3 -11 0 -18 7 -9 10 -8 11 6 5 10 -3 15 -9 12
-12z m117 -106 c7 4 8 2 4 -5 -9 -13 -26 -5 -25 12 0 9 2 8 6 -1 2 -6 10 -9
15 -6z m33 -26 c3 -5 1 -10 -4 -10 -6 0 -11 5 -11 10 0 6 2 10 4 10 3 0 8 -4
11 -10z m130 -108 c-3 -3 -11 0 -18 7 -9 10 -8 11 6 5 10 -3 15 -9 12 -12z
m92 -67 c0 -8 -4 -15 -9 -15 -10 0 -11 14 -1 23 9 10 10 9 10 -8z m47 -27 c-3
-4 -11 -5 -19 -1 -21 7 -19 12 4 10 11 0 18 -5 15 -9z m2696 8 c0 -3 -4 -8
-10 -11 -5 -3 -10 -1 -10 4 0 6 5 11 10 11 6 0 10 -2 10 -4z m-2595 -106 c34
-18 31 -27 -7 -24 -42 3 -40 2 -31 17 4 6 7 21 6 32 -1 13 0 14 3 4 3 -9 16
-22 29 -29z m32 16 c0 -8 -6 -12 -15 -9 -11 5 -11 7 0 14 7 5 13 9 14 9 0 0 1
-6 1 -14z m63 -36 c0 -5 -7 -7 -15 -4 -8 4 -15 8 -15 10 0 2 7 4 15 4 8 0 15
-4 15 -10z m2386 -38 c-17 -16 -18 -16 -5 5 7 12 15 20 18 17 3 -2 -3 -12 -13
-22z m-2266 -12 c0 -5 -2 -10 -4 -10 -3 0 -8 5 -11 10 -3 6 -1 10 4 10 6 0 11
-4 11 -10z m37 -5 c0 -8 -4 -12 -9 -9 -5 3 -6 10 -3 15 9 13 12 11 12 -6z m40
-20 c0 -8 -5 -11 -10 -8 -7 4 -8 -1 -3 -13 6 -15 5 -16 -5 -7 -10 10 -9 15 1
28 15 19 17 19 17 0z m43 -25 c-8 -5 -18 -6 -22 -4 -4 3 -8 -2 -8 -11 0 -10 5
-13 12 -9 6 4 8 3 5 -4 -8 -12 -32 -10 -44 3 -4 4 -3 5 3 2 7 -4 14 1 16 11 3
10 15 18 29 19 18 2 20 0 9 -7z m2037 -46 c-3 -3 -12 -4 -19 -1 -8 3 -5 6 6 6
11 1 17 -2 13 -5z m-2002 -14 c-3 -5 -1 -10 5 -10 6 0 8 -5 4 -11 -4 -8 -9 -7
-15 2 -12 19 -11 29 2 29 5 0 7 -4 4 -10z m158 -5 c-3 -9 -8 -14 -10 -11 -3 3
-2 9 2 15 9 16 15 13 8 -4z m52 -21 c-20 -15 -19 -19 5 -21 13 -1 18 2 13 10
-4 7 2 5 12 -3 17 -14 18 -13 12 3 -4 11 -3 16 4 12 5 -4 7 -16 3 -28 -6 -20
-5 -21 11 -7 11 9 16 10 11 3 -4 -8 -2 -13 6 -13 10 0 9 -3 -2 -10 -9 -5 -19
-5 -27 2 -7 6 -13 6 -13 1 0 -12 -38 -14 -45 -2 -4 5 -10 7 -15 4 -14 -9 -2
39 13 50 8 6 12 17 10 25 -4 13 -3 13 6 0 8 -11 7 -18 -4 -26z m1686 3 c-10
-9 -11 -8 -5 6 3 10 9 15 12 12 3 -3 0 -11 -7 -18z m-1594 -29 c-3 -7 -5 -2
-5 12 0 14 2 19 5 13 2 -7 2 -19 0 -25z m58 20 c5 4 5 1 1 -5 -10 -18 -23 -16
-30 3 -5 13 -4 14 7 6 8 -7 18 -8 22 -4z m1482 -10 c0 -13 -1 -18 -4 -11 -2 7
-11 9 -19 6 -8 -3 -14 0 -14 7 0 6 4 9 9 5 5 -3 12 -1 16 5 9 14 11 13 12 -12z
m-1452 -26 c-3 -3 -11 0 -18 7 -9 10 -8 11 6 5 10 -3 15 -9 12 -12z m1505 6
c24 15 42 8 33 -14 -3 -10 -9 -11 -17 -5 -7 6 -17 6 -26 1 -14 -9 -30 4 -30
25 0 6 5 3 10 -5 8 -13 13 -13 30 -2z m-280 -12 c-7 -7 -13 -7 -20 0 -6 6 -3
10 10 10 13 0 16 -4 10 -10z m85 4 c-3 -5 -16 -10 -28 -9 -20 1 -20 2 3 9 14
4 26 8 28 9 2 1 0 -3 -3 -9z m-1356 -14 c-24 -13 -39 -12 -39 3 0 4 14 8 32 9
32 1 32 1 7 -12z m264 -3 c-3 -7 -8 -13 -12 -13 -4 0 -8 6 -8 13 0 8 6 14 13
14 7 0 10 -6 7 -14z m30 2 c-3 -9 -8 -14 -10 -11 -3 3 -2 9 2 15 9 16 15 13 8
-4z m887 -6 c0 -5 -4 -9 -8 -9 -5 0 -9 7 -9 15 0 8 4 12 9 9 4 -3 8 -9 8 -15z
m-766 2 c3 -5 -1 -11 -9 -15 -8 -3 -17 0 -21 6 -4 7 -3 8 4 4 7 -4 12 -2 12 3
0 13 7 14 14 2z m677 -14 c-10 -9 -11 -8 -5 6 3 10 9 15 12 12 3 -3 0 -11 -7
-18z m-631 -7 c-9 -16 -40 -19 -40 -3 0 3 6 3 14 0 8 -3 17 1 20 9 3 8 8 14
11 14 3 0 1 -9 -5 -20z m135 11 c-3 -5 -1 -12 5 -16 5 -3 10 -11 10 -18 0 -6
-6 -2 -14 8 -13 18 -13 35 0 35 3 0 3 -4 -1 -9z m122 -6 c0 -8 -4 -12 -9 -9
-5 3 -6 10 -3 15 9 13 12 11 12 -6z m101 -21 c-3 -14 -5 -12 -10 9 -3 19 -2
25 4 19 6 -6 8 -18 6 -28z m412 21 c-7 -9 -15 -13 -18 -11 -2 3 -12 -4 -22
-16 -16 -21 -47 -17 -34 4 4 6 1 9 -7 6 -8 -3 -15 -10 -15 -16 -3 -25 -5 -26
-19 -8 -18 23 -19 36 -4 36 5 0 7 -5 3 -11 -4 -7 -1 -10 7 -7 8 3 13 11 11 18
-2 9 5 8 22 -4 29 -18 40 -21 31 -6 -6 9 8 14 28 11 4 0 7 4 7 9 0 6 5 10 11
10 8 0 7 -5 -1 -15z m40 0 c-10 -12 -10 -18 1 -32 11 -15 11 -16 -1 -6 -9 9
-17 9 -26 2 -18 -14 -13 12 6 34 19 20 37 23 20 2z m-750 -26 c0 -6 5 -7 10
-4 6 3 10 1 10 -5 0 -6 4 -8 10 -5 6 4 7 -1 4 -12 -4 -14 -1 -12 15 6 l21 24
-3 -24 c-6 -34 -27 -30 -72 15 -25 24 -31 34 -17 27 12 -6 22 -16 22 -22z m41
17 c5 3 9 0 9 -6 0 -15 -23 -7 -26 8 -1 7 0 8 3 2 2 -5 9 -8 14 -4z m480 0 c5
3 9 0 9 -6 0 -15 -23 -7 -26 8 -1 7 0 8 3 2 2 -5 9 -8 14 -4z m-646 -10 c11
-4 27 -11 36 -16 11 -6 22 -3 35 8 17 16 17 16 5 0 -15 -19 -2 -25 16 -7 7 7
12 6 16 -5 8 -21 -8 -29 -32 -16 -13 7 -22 7 -26 0 -3 -5 -12 -10 -18 -10 -8
0 -8 3 1 9 10 6 5 12 -20 21 -18 7 -36 13 -40 14 -3 1 -9 4 -13 8 -8 7 10 5
40 -6z m290 -4 c-3 -3 -11 0 -18 7 -9 10 -8 11 6 5 10 -3 15 -9 12 -12z m180
0 c-3 -3 -11 0 -18 7 -9 10 -8 11 6 5 10 -3 15 -9 12 -12z m32 -4 c-2 -19 2
-23 21 -20 16 1 22 -2 19 -10 -2 -7 -11 -11 -18 -9 -8 2 -21 4 -29 6 -8 1 -13
9 -11 16 2 8 4 20 4 27 0 6 4 12 9 12 4 0 7 -10 5 -22z m51 8 c-7 -8 -15 -12
-17 -11 -5 6 10 25 20 25 5 0 4 -6 -3 -14z m48 -18 c10 -13 15 -20 10 -16 -5
4 -17 3 -26 -2 -13 -7 -20 -5 -24 7 -4 9 -4 18 -1 21 3 3 5 0 5 -6 0 -7 7 -12
16 -12 14 0 14 3 4 15 -7 8 -10 15 -8 15 3 0 13 -10 24 -22z m-336 1 c0 -6 -5
-7 -12 -3 -8 5 -9 2 -4 -12 4 -10 4 -15 0 -11 -4 4 -13 2 -20 -4 -17 -14 -29
7 -13 24 15 16 49 20 49 6z m189 -5 c4 3 8 -1 8 -9 0 -26 -22 -23 -23 4 -1 14
1 20 3 13 3 -6 8 -10 12 -8z m71 6 c0 -5 -5 -10 -11 -10 -5 0 -7 5 -4 10 3 6
8 10 11 10 2 0 4 -4 4 -10z"/>
<path d="M4390 4480 c0 -5 5 -10 11 -10 5 0 7 5 4 10 -3 6 -8 10 -11 10 -2 0
-4 -4 -4 -10z"/>
<path d="M2636 4344 c-5 -13 -4 -14 7 -6 8 7 18 8 22 4 5 -4 5 -1 1 6 -10 17
-23 15 -30 -4z"/>
<path d="M2486 4278 c3 -5 10 -6 15 -3 13 9 11 12 -6 12 -8 0 -12 -4 -9 -9z"/>
<path d="M4350 4159 c0 -5 5 -7 10 -4 6 3 10 8 10 11 0 2 -4 4 -10 4 -5 0 -10
-5 -10 -11z"/>
<path d="M1949 3963 c-13 -16 -12 -17 4 -4 9 7 17 15 17 17 0 8 -8 3 -21 -13z"/>
<path d="M4325 3958 c3 -12 -1 -26 -8 -31 -9 -6 -8 -7 3 -4 16 4 23 44 9 53
-4 2 -6 -5 -4 -18z"/>
<path d="M1446 3173 c-6 -14 -5 -15 5 -6 7 7 10 15 7 18 -3 3 -9 -2 -12 -12z"/>
<path d="M907 1359 c7 -7 15 -10 18 -7 3 3 -2 9 -12 12 -14 6 -15 5 -6 -5z"/>
<path d="M1686 612 c-2 -4 4 -8 14 -8 10 0 16 4 14 8 -3 4 -9 8 -14 8 -5 0
-11 -4 -14 -8z"/>
<path d="M2283 373 c15 -15 47 -8 47 10 0 7 -4 7 -12 -1 -14 -14 -32 -16 -24
-4 3 5 -2 9 -10 9 -13 0 -13 -2 -1 -14z"/>
<path d="M3586 4821 c-3 -4 4 -7 14 -6 27 2 33 10 10 12 -11 1 -22 -2 -24 -6z"/>
<path d="M2516 4802 c-3 -5 1 -9 9 -9 8 0 12 4 9 9 -3 4 -7 8 -9 8 -2 0 -6 -4
-9 -8z"/>
<path d="M3705 4800 c-3 -6 1 -7 9 -4 18 7 21 14 7 14 -6 0 -13 -4 -16 -10z"/>
<path d="M2226 4722 c-3 -5 1 -9 9 -9 8 0 12 4 9 9 -3 4 -7 8 -9 8 -2 0 -6 -4
-9 -8z"/>
<path d="M4310 4679 c0 -5 5 -7 10 -4 6 3 10 8 10 11 0 2 -4 4 -10 4 -5 0 -10
-5 -10 -11z"/>
<path d="M1960 4646 c0 -2 8 -10 18 -17 15 -13 16 -12 3 4 -13 16 -21 21 -21
13z"/>
<path d="M1890 4600 c0 -5 5 -10 11 -10 5 0 7 5 4 10 -3 6 -8 10 -11 10 -2 0
-4 -4 -4 -10z"/>
<path d="M1806 4562 c-3 -5 1 -9 9 -9 8 0 12 4 9 9 -3 4 -7 8 -9 8 -2 0 -6 -4
-9 -8z"/>
<path d="M4440 4460 c-8 -5 -12 -12 -9 -15 4 -3 12 1 19 10 14 17 11 19 -10 5z"/>
<path d="M3176 4412 c-3 -5 8 -8 24 -8 16 0 27 3 24 8 -3 4 -14 8 -24 8 -10 0
-21 -4 -24 -8z"/>
<path d="M3294 4359 c0 -15 4 -25 9 -22 5 3 6 7 3 10 -3 3 -1 13 4 23 6 12 5
17 -4 17 -8 0 -13 -11 -12 -28z"/>
<path d="M3494 4375 c-10 -8 -15 -15 -10 -15 6 0 2 -6 -8 -13 -16 -12 -16 -14
-2 -14 9 0 16 4 16 8 0 4 8 6 18 5 9 -2 17 -8 17 -14 0 -6 4 -14 9 -19 6 -5 6
-2 1 6 -6 10 -4 13 6 9 10 -4 14 3 16 20 1 22 0 24 -9 9 -7 -14 -13 -15 -23
-7 -8 6 -11 18 -8 26 7 18 2 18 -23 -1z"/>
<path d="M3180 4366 c0 -2 7 -7 16 -10 8 -3 12 -2 9 4 -6 10 -25 14 -25 6z"/>
<path d="M4393 4356 c3 -6 -2 -19 -11 -28 -11 -13 -12 -18 -2 -18 10 0 10 -3
0 -15 -10 -13 -10 -19 4 -33 9 -10 16 -23 16 -28 0 -5 -4 -2 -10 6 -5 8 -12
11 -17 7 -9 -9 17 -28 29 -21 5 3 6 16 4 30 -3 15 1 27 11 33 14 7 13 10 -5
15 -12 4 -22 12 -22 17 0 13 13 11 30 -3 12 -11 12 -10 1 4 -15 20 -5 42 16
34 8 -3 12 -2 9 3 -8 13 -58 10 -53 -3z m8 -65 c-8 -5 -10 -14 -6 -22 6 -11 5
-11 -5 -2 -14 12 -6 33 13 33 8 0 7 -3 -2 -9z"/>
<path d="M3360 4340 c-9 -6 -10 -10 -3 -10 6 0 15 5 18 10 8 12 4 12 -15 0z"/>
<path d="M3433 4343 c4 -3 1 -13 -6 -22 -11 -14 -10 -14 5 -2 16 12 16 31 1
31 -4 0 -3 -3 0 -7z"/>
<path d="M2570 4286 c0 -2 7 -7 16 -10 8 -3 12 -2 9 4 -6 10 -25 14 -25 6z"/>
<path d="M2610 4279 c0 -5 5 -7 10 -4 6 3 10 8 10 11 0 2 -4 4 -10 4 -5 0 -10
-5 -10 -11z"/>
<path d="M2550 4271 c0 -5 7 -12 16 -15 14 -5 15 -4 4 9 -14 17 -20 19 -20 6z"/>
<path d="M2390 4249 c0 -5 -4 -8 -9 -5 -4 3 -19 -6 -31 -19 -16 -17 -31 -23
-44 -20 -12 3 -15 2 -8 -1 6 -3 10 -10 7 -14 -3 -5 0 -12 6 -16 7 -4 9 -3 6 3
-12 19 42 36 56 18 5 -6 7 -3 3 7 -6 20 10 34 17 16 4 -10 6 -10 6 -1 1 7 8
10 17 6 14 -5 13 -3 -2 15 -21 25 -24 26 -24 11z m-10 -13 c0 -2 -8 -10 -17
-17 -16 -13 -17 -12 -4 4 13 16 21 21 21 13z"/>
<path d="M3714 4238 c-4 -7 -4 -10 1 -6 4 4 15 2 24 -5 14 -11 14 -10 2 6 -16
20 -18 21 -27 5z"/>
<path d="M3870 4203 c0 -7 4 -13 9 -13 10 0 9 -19 -2 -37 -6 -9 -3 -11 7 -7 9
3 16 11 16 17 0 6 6 2 14 -8 8 -11 12 -23 10 -27 -3 -4 2 -5 11 -2 9 4 15 3
14 -2 -1 -5 -1 -15 0 -23 1 -11 4 -11 17 0 13 11 14 14 2 23 -8 6 -20 20 -26
31 -6 11 -12 14 -12 7 0 -7 -13 2 -30 20 -16 18 -30 27 -30 21z"/>
<path d="M2335 4180 c-3 -6 1 -7 9 -4 18 7 21 14 7 14 -6 0 -13 -4 -16 -10z"/>
<path d="M2241 4143 c-10 -26 -10 -27 4 -9 8 11 15 23 15 28 0 15 -7 8 -19
-19z"/>
<path d="M4416 4138 c3 -5 10 -6 15 -3 13 9 11 12 -6 12 -8 0 -12 -4 -9 -9z"/>
<path d="M1175 4121 c-3 -5 -2 -12 3 -15 5 -3 9 1 9 9 0 17 -3 19 -12 6z"/>
<path d="M4393 4105 c0 -8 4 -12 9 -9 5 3 6 10 3 15 -9 13 -12 11 -12 -6z"/>
<path d="M2205 4100 c-3 -6 1 -7 9 -4 18 7 21 14 7 14 -6 0 -13 -4 -16 -10z"/>
<path d="M1170 4080 c0 -5 5 -10 10 -10 6 0 10 5 10 10 0 6 -4 10 -10 10 -5 0
-10 -4 -10 -10z"/>
<path d="M2085 4080 c-3 -5 -1 -10 4 -10 6 0 11 5 11 10 0 6 -2 10 -4 10 -3 0
-8 -4 -11 -10z"/>
<path d="M1116 4018 c3 -5 10 -6 15 -3 13 9 11 12 -6 12 -8 0 -12 -4 -9 -9z"/>
<path d="M4375 4020 c3 -5 8 -10 11 -10 2 0 4 5 4 10 0 6 -5 10 -11 10 -5 0
-7 -4 -4 -10z"/>
<path d="M1081 3981 c-8 -5 -9 -11 -3 -15 5 -3 12 1 16 9 6 17 6 18 -13 6z"/>
<path d="M1025 3919 c-4 -6 -5 -12 -2 -15 2 -3 7 2 10 11 7 17 1 20 -8 4z"/>
<path d="M1883 3886 c1 -11 9 -21 17 -23 10 -3 11 -2 4 4 -6 4 -14 15 -17 23
-5 11 -6 9 -4 -4z"/>
<path d="M4309 3888 c-6 -22 -5 -39 3 -45 6 -3 8 -1 4 5 -3 6 -2 13 4 17 9 6
14 -8 11 -28 -1 -5 3 -6 8 -2 12 7 -7 55 -21 55 -4 0 -8 -1 -9 -2z"/>
<path d="M936 3818 c3 -4 11 -5 19 -1 21 7 19 12 -4 10 -11 0 -18 -5 -15 -9z"/>
<path d="M4245 3810 c-3 -6 1 -13 9 -16 9 -3 13 -11 9 -17 -3 -5 -1 -7 5 -4
11 8 4 47 -9 47 -4 0 -11 -5 -14 -10z"/>
<path d="M940 3779 c0 -5 5 -7 10 -4 6 3 10 8 10 11 0 2 -4 4 -10 4 -5 0 -10
-5 -10 -11z"/>
<path d="M1751 3781 c-8 -6 -9 -11 -3 -15 6 -3 14 -1 17 5 9 14 2 20 -14 10z"/>
<path d="M919 3773 c-3 -23 -4 -28 -12 -40 -5 -9 -3 -11 7 -7 19 7 26 28 15
45 -6 10 -9 11 -10 2z"/>
<path d="M1720 3741 c0 -5 7 -16 15 -24 8 -8 12 -16 10 -19 -2 -2 5 -4 16 -4
18 0 18 2 5 12 -9 6 -13 14 -10 17 3 3 -4 10 -15 17 -12 6 -21 7 -21 1z"/>
<path d="M872 3704 c-7 -8 -8 -14 -3 -14 10 0 25 19 20 25 -2 1 -10 -3 -17
-11z"/>
<path d="M868 3663 c7 -3 16 -2 19 1 4 3 -2 6 -13 5 -11 0 -14 -3 -6 -6z"/>
<path d="M829 3643 c-13 -16 -12 -17 4 -4 9 7 17 15 17 17 0 8 -8 3 -21 -13z"/>
<path d="M807 3559 c7 -7 15 -10 18 -7 3 3 -2 9 -12 12 -14 6 -15 5 -6 -5z"/>
<path d="M767 3462 c-10 -10 -17 -22 -17 -27 0 -4 9 2 20 15 11 13 20 25 20
27 0 7 -8 2 -23 -15z"/>
<path d="M730 3420 c0 -5 5 -10 11 -10 5 0 7 5 4 10 -3 6 -8 10 -11 10 -2 0
-4 -4 -4 -10z"/>
<path d="M1530 3375 c-10 -12 -10 -15 0 -15 10 0 10 -3 0 -15 -7 -8 -16 -13
-20 -10 -4 2 -6 -9 -4 -26 3 -25 1 -29 -9 -21 -10 8 -13 6 -13 -8 0 -14 4 -16
18 -9 21 11 33 29 19 29 -6 0 -7 8 -4 17 4 11 8 12 11 5 9 -27 20 -10 16 26
-3 34 -2 36 11 18 8 -11 15 -15 15 -9 0 6 -6 16 -14 22 -10 9 -16 8 -26 -4z"/>
<path d="M724 3366 c-14 -11 -16 -18 -8 -26 9 -9 14 -9 19 1 5 8 4 10 -3 5
-19 -11 -14 5 6 20 9 7 14 14 11 14 -3 0 -14 -6 -25 -14z"/>
<path d="M650 3244 c0 -1 11 -9 24 -17 22 -15 24 -15 22 0 -2 9 -12 17 -24 18
-12 1 -22 1 -22 -1z"/>
<path d="M643 3115 c-7 -8 -9 -16 -5 -19 4 -3 13 4 20 15 14 22 3 25 -15 4z"/>
<path d="M629 3071 c9 -16 8 -22 -6 -30 -16 -9 -15 -10 4 -8 12 0 20 3 18 6
-3 2 0 10 6 17 8 9 5 16 -11 24 -20 11 -21 10 -11 -9z"/>
<path d="M1450 3086 c0 -2 7 -7 16 -10 8 -3 12 -2 9 4 -6 10 -25 14 -25 6z"/>
<path d="M1418 3048 c12 -16 35 -18 48 -6 3 4 -2 5 -13 4 -10 -2 -25 2 -33 8
-13 9 -13 9 -2 -6z"/>
<path d="M584 2939 c-4 -7 -3 -9 4 -5 6 3 13 2 16 -3 4 -5 -2 -12 -11 -14 -15
-4 -15 -5 -2 -6 9 0 23 7 30 17 7 9 9 14 5 10 -5 -4 -15 -3 -22 3 -8 7 -14 6
-20 -2z"/>
<path d="M1415 2900 c-3 -5 -1 -10 4 -10 6 0 11 5 11 10 0 6 -2 10 -4 10 -3 0
-8 -4 -11 -10z"/>
<path d="M600 2893 c7 -3 7 -10 -2 -21 -10 -12 -10 -16 0 -19 17 -6 15 -20 -3
-20 -8 0 -15 5 -15 10 0 6 -3 8 -6 5 -3 -4 0 -16 6 -29 11 -20 10 -21 -6 -15
-18 6 -18 5 0 -9 13 -10 15 -15 6 -15 -7 0 -11 -3 -7 -6 3 -3 14 -1 24 5 14 8
14 10 3 11 -13 0 -13 1 0 10 10 6 11 10 3 10 -7 0 -13 5 -13 10 0 6 6 9 13 8
8 -2 12 9 12 31 0 20 -6 36 -13 37 -7 1 -8 0 -2 -3z"/>
<path d="M1390 2756 c0 -2 8 -10 18 -17 15 -13 16 -12 3 4 -13 16 -21 21 -21
13z"/>
<path d="M1374 2678 c-4 -5 -3 -12 0 -15 3 -4 6 -1 6 6 0 7 4 10 9 6 5 -3 12
-2 15 3 3 5 -2 9 -10 9 -8 0 -17 -4 -20 -9z"/>
<path d="M581 2577 c-6 -8 -8 -17 -4 -20 6 -7 -13 -11 -32 -7 -5 1 -7 -2 -2
-6 12 -12 45 -15 52 -5 3 5 1 13 -5 16 -8 5 -7 11 1 21 6 8 9 14 6 14 -2 0
-10 -6 -16 -13z"/>
<path d="M1375 2580 c3 -5 8 -10 11 -10 2 0 4 5 4 10 0 6 -5 10 -11 10 -5 0
-7 -4 -4 -10z"/>
<path d="M558 2513 c7 -3 16 -2 19 1 4 3 -2 6 -13 5 -11 0 -14 -3 -6 -6z"/>
<path d="M570 2491 c-8 -6 -18 -7 -24 -4 -5 3 -6 1 -2 -6 4 -6 12 -9 17 -6 5
4 9 1 9 -4 0 -6 -5 -11 -12 -11 -6 0 -9 -3 -5 -6 9 -10 32 10 33 29 1 9 1 17
0 17 0 0 -8 -4 -16 -9z"/>
<path d="M1359 2293 c-8 -9 -9 -14 -2 -10 6 4 13 1 16 -5 2 -7 8 -9 13 -5 5 4
2 12 -5 16 -11 7 -11 10 0 14 8 3 9 6 3 6 -6 1 -18 -7 -25 -16z"/>
<path d="M1386 2181 c-4 -5 -2 -12 3 -15 5 -4 12 -2 15 3 4 5 2 12 -3 15 -5 4
-12 2 -15 -3z"/>
<path d="M574 2129 c0 -10 4 -19 8 -19 4 0 8 6 8 14 0 8 -4 17 -8 20 -4 2 -8
-4 -8 -15z"/>
<path d="M1386 2142 c-2 -4 -1 -14 5 -22 6 -11 9 -12 9 -2 0 7 4 10 10 7 6 -3
7 1 4 9 -7 17 -20 21 -28 8z"/>
<path d="M1410 2099 c0 -5 -5 -7 -11 -3 -8 4 -8 1 -1 -12 6 -11 10 -22 11 -26
1 -5 2 -10 2 -13 1 -3 2 -13 3 -22 2 -27 15 -43 34 -42 14 0 13 2 -3 9 -14 6
-15 9 -5 10 11 0 11 3 -4 11 -15 9 -16 13 -5 20 11 7 11 9 1 9 -7 0 -11 4 -7
9 3 5 1 13 -5 16 -6 4 -8 15 -5 26 4 10 4 19 1 19 -3 0 -6 -5 -6 -11z"/>
<path d="M1433 2085 c0 -8 4 -12 9 -9 5 3 6 10 3 15 -9 13 -12 11 -12 -6z"/>
<path d="M1449 1968 c-6 -20 -5 -38 1 -48 5 -7 7 0 6 19 -1 26 -4 39 -7 29z"/>
<path d="M1470 1939 c0 -5 5 -7 10 -4 6 3 10 8 10 11 0 2 -4 4 -10 4 -5 0 -10
-5 -10 -11z"/>
<path d="M1493 1831 c0 -11 5 -18 9 -15 4 3 5 11 1 19 -7 21 -12 19 -10 -4z"/>
<path d="M1556 1833 c-6 -14 -5 -15 5 -6 7 7 10 15 7 18 -3 3 -9 -2 -12 -12z"/>
<path d="M1506 1793 c-10 -24 6 -34 28 -17 11 8 15 14 10 14 -6 0 -15 -5 -22
-12 -7 -7 -12 -8 -12 -2 0 6 5 15 12 22 8 8 8 12 1 12 -6 0 -14 -8 -17 -17z"/>
<path d="M1530 1750 c-9 -17 -6 -23 17 -37 20 -13 28 -26 27 -45 -1 -22 2 -26
12 -17 17 14 18 23 2 13 -8 -5 -9 0 -5 15 4 17 0 25 -18 33 -14 6 -22 15 -19
20 3 4 10 5 16 2 7 -4 8 -2 4 5 -4 6 -12 8 -18 5 -7 -5 -9 -1 -5 9 9 23 0 21
-13 -3z"/>
<path d="M673 1735 c0 -8 4 -12 9 -9 5 3 6 10 3 15 -9 13 -12 11 -12 -6z"/>
<path d="M716 1657 c3 -10 9 -15 12 -12 3 3 0 11 -7 18 -10 9 -11 8 -5 -6z"/>
<path d="M765 1630 c-3 -5 -12 -7 -20 -3 -8 3 -15 1 -15 -5 0 -10 55 -11 65
-1 3 4 -1 9 -9 12 -9 4 -18 2 -21 -3z"/>
<path d="M1615 1620 c-3 -5 -1 -10 4 -10 6 0 11 5 11 10 0 6 -2 10 -4 10 -3 0
-8 -4 -11 -10z"/>
<path d="M716 1578 c3 -5 10 -6 15 -3 13 9 11 12 -6 12 -8 0 -12 -4 -9 -9z"/>
<path d="M1630 1545 c0 -2 6 -8 13 -14 10 -8 14 -7 14 2 0 8 -6 14 -14 14 -7
0 -13 -1 -13 -2z"/>
<path d="M1670 1540 c0 -5 5 -10 11 -10 5 0 7 5 4 10 -3 6 -8 10 -11 10 -2 0
-4 -4 -4 -10z"/>
<path d="M790 1495 c0 -6 7 -20 15 -31 8 -12 12 -23 10 -26 -2 -2 6 -4 19 -4
12 0 23 6 23 13 0 9 -4 10 -13 2 -10 -8 -18 -3 -34 23 -11 18 -20 28 -20 23z"/>
<path d="M1704 1478 l-19 -23 23 19 c21 18 27 26 19 26 -2 0 -12 -10 -23 -22z"/>
<path d="M1720 1440 c-9 -6 -10 -10 -3 -10 6 0 15 5 18 10 8 12 4 12 -15 0z"/>
<path d="M1751 1410 c14 -31 19 -36 19 -24 0 6 -7 19 -16 30 -14 18 -14 18 -3
-6z"/>
<path d="M835 1410 c3 -5 8 -10 11 -10 2 0 4 5 4 10 0 6 -5 10 -11 10 -5 0 -7
-4 -4 -10z"/>
<path d="M835 1380 c3 -5 8 -10 11 -10 2 0 4 5 4 10 0 6 -5 10 -11 10 -5 0 -7
-4 -4 -10z"/>
<path d="M1816 1362 c-3 -4 4 -9 15 -9 23 -2 25 3 4 10 -8 4 -16 3 -19 -1z"/>
<path d="M1834 1322 c4 -3 14 -7 22 -8 9 -1 13 0 10 4 -4 3 -14 7 -22 8 -9 1
-13 0 -10 -4z"/>
<path d="M1850 1296 c0 -2 8 -10 18 -17 15 -13 16 -12 3 4 -13 16 -21 21 -21
13z"/>
<path d="M915 1260 c3 -5 8 -10 11 -10 2 0 4 5 4 10 0 6 -5 10 -11 10 -5 0 -7
-4 -4 -10z"/>
<path d="M1890 1246 c0 -8 4 -17 9 -20 5 -4 7 3 4 14 -6 23 -13 26 -13 6z"/>
<path d="M973 1175 c0 -8 4 -12 9 -9 5 3 6 10 3 15 -9 13 -12 11 -12 -6z"/>
<path d="M4215 1180 c3 -5 8 -10 11 -10 2 0 4 5 4 10 0 6 -5 10 -11 10 -5 0
-7 -4 -4 -10z"/>
<path d="M1980 1161 c0 -6 4 -13 10 -16 6 -3 7 1 4 9 -7 18 -14 21 -14 7z"/>
<path d="M4435 1130 c-4 -6 -11 -8 -16 -5 -5 4 -9 1 -9 -4 0 -6 -6 -10 -12 -8
-7 1 -12 -4 -10 -10 1 -7 -3 -13 -9 -13 -6 0 -9 -7 -6 -15 4 -8 2 -17 -4 -21
-6 -3 -8 -12 -5 -19 2 -7 -1 -18 -7 -24 -9 -9 -8 -14 3 -21 23 -14 30 -12 31
10 2 29 3 33 13 49 6 9 5 12 -1 8 -6 -4 -13 0 -16 8 -5 11 -1 12 16 6 19 -7
23 -5 23 10 0 12 -4 15 -10 9 -6 -6 -15 -10 -20 -10 -6 0 5 14 24 30 19 16 32
30 28 30 -4 0 -10 -5 -13 -10z m-48 -95 c0 -8 -4 -12 -9 -9 -5 3 -6 10 -3 15
9 13 12 11 12 -6z m-7 -35 c0 -5 -2 -10 -4 -10 -3 0 -8 5 -11 10 -3 6 -1 10 4
10 6 0 11 -4 11 -10z"/>
<path d="M2032 1118 c2 -6 10 -13 16 -14 7 -1 8 0 2 3 -5 2 -8 9 -4 14 3 5 0
9 -6 9 -7 0 -10 -5 -8 -12z"/>
<path d="M2117 1075 c-6 -15 10 -32 20 -21 4 3 1 6 -5 6 -6 0 -9 7 -6 15 4 8
4 15 1 15 -3 0 -7 -7 -10 -15z"/>
<path d="M1117 1073 c-10 -9 -9 -23 1 -23 5 0 9 7 9 15 0 17 -1 18 -10 8z"/>
<path d="M4150 1059 c0 -5 5 -7 10 -4 6 3 10 8 10 11 0 2 -4 4 -10 4 -5 0 -10
-5 -10 -11z"/>
<path d="M1091 1044 c0 -11 3 -14 6 -6 3 7 2 16 -1 19 -3 4 -6 -2 -5 -13z"/>
<path d="M4090 1046 c0 -2 7 -7 16 -10 8 -3 12 -2 9 4 -6 10 -25 14 -25 6z"/>
<path d="M4414 1039 c-3 -6 -1 -16 5 -22 9 -9 10 -7 5 7 -6 15 -4 17 6 11 9
-5 11 -4 6 3 -9 15 -13 15 -22 1z"/>
<path d="M1156 1031 c-8 -13 -3 -61 6 -61 4 0 8 5 8 11 0 5 5 7 10 4 8 -5 7
-12 -2 -23 -12 -15 -11 -16 5 -3 9 8 21 10 25 6 4 -4 1 -10 -5 -12 -7 -3 -13
-9 -13 -15 0 -6 6 -6 15 2 21 17 19 1 -2 -24 -14 -16 -14 -18 -2 -8 9 6 20 8
24 4 5 -4 5 -1 1 6 -4 7 -1 12 9 12 9 0 13 -4 10 -10 -3 -5 1 -10 9 -10 18 0
20 -11 6 -28 -7 -9 -7 -9 2 -2 20 17 31 11 17 -7 -12 -16 -12 -17 2 -6 9 7 20
9 25 5 5 -4 -1 5 -14 19 -12 14 -19 29 -15 33 5 4 4 6 -2 5 -13 -4 -58 21 -51
28 7 7 -17 32 -26 27 -8 -5 -33 37 -30 49 3 10 -6 9 -12 -2z"/>
<path d="M2160 1031 c0 -6 4 -13 10 -16 6 -3 7 1 4 9 -7 18 -14 21 -14 7z"/>
<path d="M4406 997 c3 -10 9 -15 12 -12 3 3 0 11 -7 18 -10 9 -11 8 -5 -6z"/>
<path d="M4073 975 c0 -8 4 -12 9 -9 5 3 6 10 3 15 -9 13 -12 11 -12 -6z"/>
<path d="M4045 959 c-4 -6 -5 -12 -2 -15 2 -3 7 2 10 11 7 17 1 20 -8 4z"/>
<path d="M4396 958 c3 -5 10 -6 15 -3 13 9 11 12 -6 12 -8 0 -12 -4 -9 -9z"/>
<path d="M3970 917 c0 -2 6 -10 14 -16 11 -9 16 -9 22 1 4 7 4 10 -1 6 -4 -4
-14 -3 -22 3 -7 6 -13 9 -13 6z"/>
<path d="M3956 878 c3 -5 10 -6 15 -3 13 9 11 12 -6 12 -8 0 -12 -4 -9 -9z"/>
<path d="M3895 860 c-3 -5 -1 -10 4 -10 6 0 11 5 11 10 0 6 -2 10 -4 10 -3 0
-8 -4 -11 -10z"/>
<path d="M4353 853 c0 -11 7 -20 14 -20 10 0 10 4 1 16 -7 9 -13 18 -15 20 -1
2 -1 -5 0 -16z"/>
<path d="M1291 844 c0 -11 3 -14 6 -6 3 7 2 16 -1 19 -3 4 -6 -2 -5 -13z"/>
<path d="M1330 850 c0 -4 8 -11 18 -15 16 -6 16 -7 -2 -21 -11 -7 -16 -17 -12
-21 4 -4 11 -1 17 7 8 13 12 12 28 -7 10 -12 21 -19 25 -16 3 4 6 -1 6 -10 0
-9 4 -19 10 -22 6 -3 7 1 4 10 -5 11 -2 14 12 9 11 -3 4 3 -15 14 -21 12 -29
21 -21 24 11 3 10 9 -3 29 -10 13 -20 23 -22 22 -3 -2 -6 -3 -7 -2 -20 6 -38
6 -38 -1z m70 -36 c0 -1 -4 -5 -9 -8 -5 -3 -16 6 -26 20 l-16 25 25 -16 c14
-10 26 -19 26 -21z"/>
<path d="M2575 840 c-3 -5 -1 -10 4 -10 6 0 11 5 11 10 0 6 -2 10 -4 10 -3 0
-8 -4 -11 -10z"/>
<path d="M1318 823 c7 -3 16 -2 19 1 4 3 -2 6 -13 5 -11 0 -14 -3 -6 -6z"/>
<path d="M3756 778 c3 -5 10 -6 15 -3 13 9 11 12 -6 12 -8 0 -12 -4 -9 -9z"/>
<path d="M3716 763 c-6 -14 -5 -15 5 -6 7 7 10 15 7 18 -3 3 -9 -2 -12 -12z"/>
<path d="M1459 754 c-8 -10 -9 -18 -2 -22 5 -4 13 -14 16 -22 4 -12 6 -11 6 3
1 10 6 15 11 12 6 -4 7 -12 4 -18 -4 -7 -4 -9 0 -5 5 4 14 1 21 -5 10 -9 10
-16 1 -27 -9 -13 -9 -13 6 -2 20 16 18 29 -10 70 -26 36 -34 39 -53 16z m52
-31 l24 -28 -26 23 c-14 12 -28 20 -31 16 -3 -3 -9 -1 -13 5 -14 23 23 10 46
-16z"/>
<path d="M2830 760 c0 -5 5 -10 11 -10 5 0 7 5 4 10 -3 6 -8 10 -11 10 -2 0
-4 -4 -4 -10z"/>
<path d="M2865 760 c-3 -6 1 -7 9 -4 18 7 21 14 7 14 -6 0 -13 -4 -16 -10z"/>
<path d="M3640 766 c0 -2 8 -10 18 -17 15 -13 16 -12 3 4 -13 16 -21 21 -21
13z"/>
<path d="M2955 739 c-3 -4 2 -6 10 -5 21 3 28 13 10 13 -9 0 -18 -4 -20 -8z"/>
<path d="M1416 718 c3 -5 10 -6 15 -3 13 9 11 12 -6 12 -8 0 -12 -4 -9 -9z"/>
<path d="M1610 687 c-18 -14 -25 -62 -11 -71 5 -3 16 0 24 8 22 22 30 6 10
-18 -18 -21 -18 -21 4 -3 29 25 18 54 -19 48 -12 -2 -9 14 4 27 16 16 7 23
-12 9z m20 -42 c0 -2 -7 -8 -15 -15 -12 -10 -15 -10 -15 2 0 8 7 15 15 15 8 0
15 -1 15 -2z"/>
<path d="M1750 562 c0 -14 22 -20 44 -12 13 4 16 9 9 13 -7 4 -15 3 -18 -3 -5
-8 -11 -7 -21 1 -8 7 -14 7 -14 1z"/>
<path d="M1730 540 c0 -5 5 -10 11 -10 5 0 7 5 4 10 -3 6 -8 10 -11 10 -2 0
-4 -4 -4 -10z"/>
<path d="M1860 522 c-6 -15 -8 -24 -4 -20 4 4 15 -1 24 -12 17 -20 17 -19 16
15 -1 43 -20 52 -36 17z m24 -8 c3 -8 2 -12 -4 -9 -6 3 -10 10 -10 16 0 14 7
11 14 -7z"/>
<path d="M4255 539 c-4 -6 -5 -12 -2 -15 2 -3 7 2 10 11 7 17 1 20 -8 4z"/>
<path d="M1756 513 c-6 -14 -5 -15 5 -6 7 7 10 15 7 18 -3 3 -9 -2 -12 -12z"/>
<path d="M4230 499 c0 -5 5 -7 10 -4 6 3 10 8 10 11 0 2 -4 4 -10 4 -5 0 -10
-5 -10 -11z"/>
<path d="M4215 461 c-3 -5 -2 -12 3 -15 5 -3 9 1 9 9 0 17 -3 19 -12 6z"/>
<path d="M2154 411 c-16 -13 -21 -22 -12 -18 11 4 21 0 28 -11 8 -14 9 -11 6
13 -5 28 -4 29 9 11 9 -12 18 -16 24 -10 4 5 1 16 -9 25 -15 14 -19 14 -46
-10z"/>
<path d="M2000 426 c0 -2 7 -7 16 -10 8 -3 12 -2 9 4 -6 10 -25 14 -25 6z"/>
<path d="M4056 407 c3 -9 18 -24 32 -33 26 -17 27 -17 12 1 -14 17 -13 18 2
12 12 -4 15 -2 12 8 -3 7 -13 12 -22 10 -9 -1 -23 2 -30 8 -9 7 -11 6 -6 -6z"/>
<path d="M2186 363 c-6 -14 -5 -15 5 -6 7 7 10 15 7 18 -3 3 -9 -2 -12 -12z"/>
<path d="M3896 353 c-5 -12 -9 -13 -20 -4 -10 8 -16 9 -21 1 -3 -5 1 -10 9
-10 9 0 15 -5 14 -11 -2 -6 5 -13 15 -14 14 -3 15 0 8 9 -6 7 -8 16 -4 19 3 4
12 -1 19 -11 12 -16 13 -15 11 5 -2 27 -23 38 -31 16z"/>
<path d="M2236 347 c3 -10 9 -15 12 -12 3 3 0 11 -7 18 -10 9 -11 8 -5 -6z"/>
<path d="M4026 342 c-3 -5 1 -9 9 -9 8 0 12 4 9 9 -3 4 -7 8 -9 8 -2 0 -6 -4
-9 -8z"/>
<path d="M2424 328 c-4 -7 -3 -8 4 -4 7 4 12 2 12 -3 0 -6 4 -11 10 -11 5 0 7
7 4 15 -7 18 -20 19 -30 3z"/>
<path d="M3976 323 c-6 -14 -5 -15 5 -6 7 7 10 15 7 18 -3 3 -9 -2 -12 -12z"/>
<path d="M2365 320 c3 -5 8 -10 11 -10 2 0 4 5 4 10 0 6 -5 10 -11 10 -5 0 -7
-4 -4 -10z"/>
<path d="M2415 300 c3 -5 8 -10 11 -10 2 0 4 5 4 10 0 6 -5 10 -11 10 -5 0 -7
-4 -4 -10z"/>
<path d="M3996 302 c-3 -5 1 -9 9 -9 8 0 12 4 9 9 -3 4 -7 8 -9 8 -2 0 -6 -4
-9 -8z"/>
<path d="M3830 289 c0 -5 5 -7 10 -4 6 3 10 8 10 11 0 2 -4 4 -10 4 -5 0 -10
-5 -10 -11z"/>
<path d="M2610 278 c0 -6 3 -8 7 -5 3 4 13 1 22 -6 14 -11 14 -10 2 6 -15 20
-31 22 -31 5z"/>
<path d="M2780 276 c7 -7 14 -6 21 1 9 9 7 12 -9 10 -14 -1 -18 -5 -12 -11z"/>
<path d="M2810 265 c-11 -13 -10 -14 4 -9 9 3 16 10 16 15 0 13 -6 11 -20 -6z"/>
<path d="M2730 260 c0 -5 5 -10 11 -10 5 0 7 5 4 10 -3 6 -8 10 -11 10 -2 0
-4 -4 -4 -10z"/>
<path d="M3530 260 c0 -5 5 -10 11 -10 5 0 7 5 4 10 -3 6 -8 10 -11 10 -2 0
-4 -4 -4 -10z"/>
<path d="M3670 262 c0 -5 7 -9 15 -9 8 0 12 4 9 9 -3 4 -9 8 -15 8 -5 0 -9 -4
-9 -8z"/>
<path d="M2960 246 c0 -2 8 -10 18 -17 15 -13 16 -12 3 4 -13 16 -21 21 -21
13z"/>
<path d="M3066 242 c-2 -4 4 -8 14 -8 10 0 16 4 14 8 -3 4 -9 8 -14 8 -5 0
-11 -4 -14 -8z"/>
<path d="M3306 242 c-2 -4 4 -8 14 -8 10 0 16 4 14 8 -3 4 -9 8 -14 8 -5 0
-11 -4 -14 -8z"/>
<path d="M3025 220 c-3 -6 1 -7 9 -4 18 7 21 14 7 14 -6 0 -13 -4 -16 -10z"/>
</g>
</svg>
