<svg xmlns="http://www.w3.org/2000/svg" width="23.167" height="39.035" viewBox="0 0 23.167 39.035">
  <path id="Path_525" data-name="Path 525" d="M2898.695-8536.119a10.426,10.426,0,0,0-2.668-3.66,13.1,13.1,0,0,0-4.384-2.1,18.071,18.071,0,0,0-2.147-3.158,18.412,18.412,0,0,0-2.868-2.562s1.1-.381,3.237-2.994c.806-.988.823-2.154,2.146-4.02a22.348,22.348,0,0,1,3.147-3.439s-.067,1.73.407,2.2,1.491-.326,1.491-.326a10.834,10.834,0,0,0,3-4.287,7.172,7.172,0,0,0-.605-4.541,6.452,6.452,0,0,0-3.628.8,13.231,13.231,0,0,0-3.3,3.283s-1.87-4.715-.512-8.271,5.941-5.963,5.941-5.963a23.012,23.012,0,0,0-3.45,4.568,3.958,3.958,0,0,0,0,3.289c.211.8,1.344.953,2.554.531a11.237,11.237,0,0,0,2.7-1.564l4.591,3.725a99.465,99.465,0,0,1,3.49,9.988,76.161,76.161,0,0,1,1.957,9.576,49.121,49.121,0,0,0-5.446,3.762,21.6,21.6,0,0,0-3.558,3.74,19.872,19.872,0,0,0-2.578-5.023,17.457,17.457,0,0,0-3.994-3.666l4.476-3.1a6.4,6.4,0,0,1,2.1,1.918,5.023,5.023,0,0,1,.561,2.568,5.843,5.843,0,0,0-1.3-1.684c-.665-.471-1.328-.459-1.361-.191a3.9,3.9,0,0,0,.483,2.137,8.5,8.5,0,0,0,1.888,2.016l3.633-3.057a11.946,11.946,0,0,0-1.993-3.219,16.711,16.711,0,0,0-3.256-2.646,6.878,6.878,0,0,1,1.9,0,5.512,5.512,0,0,1,1.67.615s-.855-2.977-3.264-2.289-6.373,5.031-6.373,5.031l-1.374,1.6.512.66,3.5,3.3a8.224,8.224,0,0,1,1.676,2.58A19.334,19.334,0,0,1,2898.695-8536.119Z" transform="translate(-2886.628 8575.154)" fill="#edcd90"/>
</svg>
