<svg xmlns="http://www.w3.org/2000/svg" width="88.708" height="87.96" viewBox="0 0 88.708 87.96"><path d="M93.673,22.572,19.91,39.684,66.96,89.393,55.813,100.546l52.806,9.986L98.639,57.7l-5.894,5.9,6.881,15.857L84.816,63.1,69.748,48.3l7.666,15.019L52.117,41.87l41.556-19.3Zm-34.042,36.1a3.887,3.887,0,0,1,3.657,5.2l6.643,6.392L76.108,64.5l2.381,2.555-3.246,3.025,25.84,24.971,3.535,11.309L93.309,103.1,67.047,77.721l-3.381,3.15-2.381-2.554,6.087-5.673-6.618-6.368a3.885,3.885,0,1,1-1.123-7.6ZM72.5,72.8,70.08,75.317l25.89,24.928,2.422-2.516Z" transform="translate(-19.91 -22.572)" fill="#fff"/></svg>