<svg id="_8678219_bookmark_line_favorite_icon" data-name="8678219_bookmark_line_favorite_icon" xmlns="http://www.w3.org/2000/svg" width="20" height="20" viewBox="0 0 20 20">
  <path id="Path_566" data-name="Path 566" d="M0,0H20V20H0Z" fill="#1a1818"/>
  <path id="Path_567" data-name="Path 567" d="M3.833,2H17.167A.833.833,0,0,1,18,2.833V18.9a.417.417,0,0,1-.587.381L10.5,16.192,3.587,19.277A.417.417,0,0,1,3,18.9V2.833A.833.833,0,0,1,3.833,2Zm12.5,14.971V3.667H4.667v13.3l5.833-2.6ZM10.5,11.583,8.051,12.871l.467-2.727L6.537,8.212l2.738-.4L10.5,5.333l1.225,2.481,2.738.4-1.981,1.932.467,2.727Z" transform="translate(-0.5 -0.333)" fill="#edcd90"/>
</svg>


