<svg xmlns="http://www.w3.org/2000/svg" width="88.722" height="80.803" viewBox="0 0 88.722 80.803"><path d="M19.782,59.354q-1.107.009-2.219.035,1.214.777,2.441,1.518C37.855,71.415,57.387,76.55,77.906,82c0,0,.007,0,.012.006s.008,0,.012,0c.349.093.7.187,1.045.28l.029-.1c.177.015.357.023.537.023a6.419,6.419,0,0,0,2.266-.409l-2.336,8.707,3.375.9,3-11.206a45.607,45.607,0,0,1,13.88,2.961c-.2,2.233.51,4.077,1.834,4.432,1.628.436,3.576-1.553,4.35-4.443a8.88,8.88,0,0,0,.31-2.54l.064-.239-.076-.006c-.1-1.668-.769-2.947-1.845-3.235-1.272-.341-2.74.8-3.69,2.7a38.941,38.941,0,0,1-13.541-4.427l3.054-11.392-3.37-.9-2.26,8.437a6.611,6.611,0,0,0-2.231-1.74l.018-.07C61.018,63.952,41.355,59.181,19.782,59.354Zm30.131,8.268c10.374,0,19.671,2.334,29.833,5.051a3.029,3.029,0,0,1-.2,6.05,3.055,3.055,0,0,1-1.25-.263c-10.5-2.81-20.433-5.192-29.412-10.832.346-.005.69-.006,1.033-.006ZM41.276,98.314v3.8H24.658a23.958,23.958,0,0,0,16.619,13.88v6.161H52.219c-2.264,5.705-6.265,10.4-10.931,14.5H36.535v3.5H89.667v-3.5H84.539c-5.368-4.091-9.347-8.785-11.509-14.5H84.924v-5.448A35.152,35.152,0,0,0,96,109.846a25.064,25.064,0,0,0-11.071-5.968V98.314H41.276Z" transform="translate(-17.563 -59.349)" fill="#fff"/></svg>