<svg xmlns="http://www.w3.org/2000/svg" width="88.856" height="88.085" viewBox="0 0 88.856 88.085"><path d="M27.519,22.218a10.456,10.456,0,0,0-7.363,7.369A45.357,45.357,0,0,1,42.988,52L32.039,62.953l2.7,2.7L63.886,36.506l-2.7-2.7L49.942,45.05a45.217,45.217,0,0,1-13.121-9.115,43.811,43.811,0,0,1-9.3-13.717ZM59.67,45.657l-6.815,6.815L63.717,63.478,75.291,75.052l11.655,11.5L98.367,98.129l10.645,10.5V95L59.67,45.657ZM49.925,55.4l-5.857,5.863L93.106,110.3h4.549L95.9,100.6l-9.8-1.775L84.4,89.1l-9.8-1.775-1.77-9.8-9.8-1.775-1.775-9.8-9.723-1.7Z" transform="translate(-20.156 -22.218)" fill="#fff"/></svg>