<svg xmlns="http://www.w3.org/2000/svg" width="89.09" height="88.768" viewBox="0 0 89.09 88.768"><path d="M64.533,19.375A43.953,43.953,0,0,0,39.1,27.451c2.433,2.82,4.917,5.629,7.317,8.309a23.781,23.781,0,0,1,9.1-4.164l1.845-1.845L58.6,28.514l1.232,1.238,1.443,1.443c14.712,1.055,26.261,17.776,18.948,32.8l22.142,22.142a44.114,44.114,0,0,0-37.832-66.76ZM29.042,20.812l-6.908,6.908c7.091,5.575,14.977,12.315,21.488,18.1l1.384,1.232L43.7,48.355l-8.852,8.852,3.679,3.673,6.447-6.447,50.1,50.107,14.452,3.6L105.443,94.17,100.4,89.129l.007-.01-22-22-.006.008L55.342,44.063l6.931-6.931L58.6,33.459l-8.683,8.677-1.3,1.3-1.226-1.36c-5.827-6.449-12.714-14.2-18.347-21.261ZM28.8,37.64a44.1,44.1,0,0,0,40.723,69.651c-24.572.186-46.117-24.023-38.7-49.172l-.911-.911,1.232-1.238.607-.607a43.274,43.274,0,0,1,5.7-10.318c-2.779-2.428-5.708-4.939-8.648-7.4Zm22.493,8.6a4.154,4.154,0,0,1,3.976,5.349L99.546,95.869l-2.465,2.464L52.954,54.212A4.158,4.158,0,1,1,51.3,46.241Z" transform="translate(-20.435 -19.375)" fill="#fff"/></svg>